<?xml version="1.0" standalone="no"?>
<!DOCTYPE svg PUBLIC "-//W3C//DTD SVG 1.1//EN" "http://www.w3.org/Graphics/SVG/1.1/DTD/svg11.dtd" >
<svg xmlns="http://www.w3.org/2000/svg">
  <metadata>Created by iconfont</metadata>
  <defs>
  <font id="iconfont" horiz-adv-x="1024">
    <font-face
      font-family="iconfont"
      font-weight="400"
      font-stretch="normal"
      units-per-em="1024"
      ascent="896"
      descent="-128"
    />
      <missing-glyph />
      
      <glyph glyph-name="blog" unicode="&#58931;" d="M464.64 767.6800000000001a16.224 16.224 0 0 1-16.64-16.32V688c0-8.96 7.04-16 16-16v-0.64c199.36-7.68 359.68-168 367.36-367.36H832c0-8.96 7.04-16 16-16h63.36c9.28 0 16.64 7.68 16.32 16.64-8.64 251.52-211.52 454.4-463.04 463.04z m0-160a16.448 16.448 0 0 1-16.64-16.32v-63.36c0-8.96 7.04-16 16-16v-0.96c111.04-7.36 199.68-96 207.04-207.04H672c0-8.96 7.04-16 16-16h63.36c8.96 0 16.64 7.68 16.32 16.64-8.64 163.2-139.84 294.4-303.04 303.04zM176 576c-8.96 0-16-7.04-16-16v-352c0-114.56 93.44-208 208-208s208 93.44 208 208-93.44 208-208 208c-8.96 0-16-7.04-16-16v-96c0-8.96 7.04-16 16-16a80 80 0 0 0 0-160A80 80 0 0 0 288 208v352c0 8.96-7.04 16-16 16h-96z"  horiz-adv-x="1024" />
      
      <glyph glyph-name="xinlv" unicode="&#58896;" d="M944 581.8c0-251-268.2-464.5-381.9-543.9-30.1-21-70.1-21-100.2 0C348.1 117.20000000000005 80 330.79999999999995 80 581.8 80 844.2 373.1 737 476.5 691c22.6-10.1 48.5-10.1 71.1 0C650.9 736.9 944 844.2 944 581.8zM512 7.2999999999999545c-20.6 0-41.1 6.1-58.7 18.3C336.6 107 65 324.1 65 581.8 65 657 88.3 710.2 134.1 740c43.3 28.1 105.6 34.3 185.1 18.5 63.1-12.5 123.7-36.2 163.3-53.8 18.7-8.3 40.2-8.3 58.9 0 39.7 17.6 100.2 41.3 163.3 53.8 79.6 15.8 141.9 9.6 185.1-18.5 45.9-29.8 69.1-83 69.1-158.2 0-257.6-271.6-474.8-388.4-556.2-17.4-12.2-37.9-18.3-58.5-18.3zM240.1 737.1c-36.8 0-66.8-7.4-89.7-22.3-36.8-23.9-55.5-68.7-55.5-133 0-104.8 48.7-214.7 144.7-326.5 82-95.5 179.8-169.5 230.8-205 24.8-17.3 58.2-17.3 83 0 51 35.6 148.8 109.5 230.8 205C880.4 367.1 929 476.9 929 581.8c0 64.4-18.7 109.1-55.5 133-36.5 23.7-91.3 28.5-163 14.3-60.4-12-118.7-34.8-157-51.8-26.5-11.8-56.8-11.8-83.3 0-38.3 17-96.6 39.8-157 51.8-26.6 5.3-51.1 8-73.1 8zM154.6 340.70000000000005h169.8c5.6 0 9.8 3.8 11.6 8.8 7.7 21.4 15.5 42.7 23.2 64.1 12.3 34.1 24.7 68.2 37 102.3 2.8 7.9 5.7 15.8 8.5 23.6h-23.1c6.4-26.6 12.7-53.3 19.1-79.9 10.1-42.4 20.3-84.9 30.4-127.3l6.9-29.1c2.8-11.9 19.9-11 23.1 0 12.3 41.2 24.7 82.5 37 123.7 1.8 5.9 3.5 11.7 5.3 17.6-7.3-1-14.6-1.9-21.9-2.9 13.4-27.8 26.8-55.5 40.2-83.3 1.9-3.9 3.8-7.9 5.7-11.8 3.7-7.7 17.1-8 20.7 0l43.2 96.3c2.1 4.6 4.1 9.2 6.2 13.8-7.3 1-14.6 1.9-21.9 2.9 13.4-32.1 26.8-64.2 40.1-96.4 1.9-4.6 3.8-9.1 5.7-13.7 2.1-5 5.8-8.8 11.6-8.8H868.1c15.4 0 15.5 24 0 24H633c3.9-2.9 7.7-5.9 11.6-8.8-13.4 32.1-26.8 64.2-40.1 96.4-1.9 4.6-3.8 9.1-5.7 13.7-1.9 4.5-4.8 8-10 8.6-4.3 0.5-10-1.4-12-5.7l-43.2-96.3c-2.1-4.6-4.1-9.2-6.2-13.8h20.7c-13.4 27.8-26.8 55.5-40.2 83.3-1.9 3.9-3.8 7.9-5.7 11.8-4.7 9.7-19.2 6.4-21.9-2.9-12.3-41.2-24.7-82.5-37-123.7-1.8-5.9-3.5-11.7-5.3-17.6h23.1c-6.4 26.6-12.7 53.3-19.1 79.9-10.1 42.4-20.3 84.9-30.4 127.3l-6.9 29.1c-1.2 5.1-6.4 8.8-11.6 8.8-5.6 0-9.8-3.8-11.6-8.8-7.7-21.4-15.5-42.7-23.2-64.1-12.3-34.1-24.7-68.2-37-102.3-2.8-7.9-5.7-15.8-8.5-23.6 3.9 2.9 7.7 5.9 11.6 8.8H154.6c-15.4 0-15.5-24 0-24zM721.9 655.6c1.5 0.4 3.1 0.7 4.7 0.9 1.9 0.3 3.7 0.6 5.6 0.9 2.6 0.4-2.7-0.3-1.3-0.2 0.6 0.1 1.1 0.1 1.7 0.2 1.2 0.1 2.5 0.3 3.7 0.4 6.2 0.6 12.4 0.9 18.6 0.9 3.5 0 7.1-0.1 10.6-0.4 1.8-0.1 3.6-0.3 5.4-0.5l2.7-0.3c1.3-0.1 0.5 0.5-1.5 0.2 0.6 0.1 1.4-0.2 1.9-0.3 7.8-1.3 15.5-3 22.9-5.8 0.9-0.3 1.8-0.7 2.8-1.1 2.4-0.9-2.6 1.2 0.2-0.1 2-0.9 4-1.8 5.9-2.9 3.7-2 7.2-4.2 10.6-6.6 2.8-2-1.4 1.2 0.5-0.4 0.7-0.6 1.5-1.2 2.2-1.8 1.8-1.5 3.5-3.2 5.1-4.8 1.5-1.6 2.9-3.3 4.3-4.9 2.1-2.4-1.3 1.9 0.6-0.8 0.7-1 1.5-2 2.2-3.1 2.8-4.1 4.9-8.5 7.1-13 1.1-2.3-0.8 2-0.2 0.4 0.2-0.6 0.5-1.2 0.7-1.8 0.5-1.2 0.9-2.5 1.4-3.7 0.9-2.7 1.8-5.5 2.5-8.3 0.8-3.3 1.5-6.6 2.1-9.9 0.1-0.8 0.9-6.5 0.5-3.3 0.2-1.8 0.4-3.5 0.6-5.3 0.7-8.1 0.9-16.3 0.5-24.5-0.8-20.8-4.2-39.2-9.4-60.1-3.7-15 19.4-21.4 23.1-6.4 13 52.7 22 124.8-23.3 165.6-25.8 23.2-62.1 29.8-95.9 27.3-8.6-0.6-17.3-1.6-25.7-3.6-14.8-3.3-8.4-26.4 6.6-22.9zM512 7.2999999999999545c-20.6 0-41.1 6.1-58.7 18.3C336.6 107 65 324.1 65 581.8 65 657 88.3 710.2 134.1 740c43.3 28.1 105.6 34.3 185.1 18.5 63.1-12.5 123.7-36.2 163.3-53.8 18.7-8.3 40.2-8.3 58.9 0 39.7 17.6 100.2 41.3 163.3 53.8 79.6 15.8 141.9 9.6 185.1-18.5 45.9-29.8 69.1-83 69.1-158.2 0-257.6-271.6-474.8-388.4-556.2-17.4-12.2-37.9-18.3-58.5-18.3zM240.1 737.1c-36.8 0-66.8-7.4-89.7-22.3-36.8-23.9-55.5-68.7-55.5-133 0-104.8 48.7-214.7 144.7-326.5 82-95.5 179.8-169.5 230.8-205 24.8-17.3 58.2-17.3 83 0 51 35.6 148.8 109.5 230.8 205C880.4 367.1 929 476.9 929 581.8c0 64.4-18.7 109.1-55.5 133-36.5 23.7-91.3 28.5-163 14.3-60.4-12-118.7-34.8-157-51.8-26.5-11.8-56.8-11.8-83.3 0-38.3 17-96.6 39.8-157 51.8-26.6 5.3-51.1 8-73.1 8z"  horiz-adv-x="1024" />
      
      <glyph glyph-name="yuan" unicode="&#60313;" d="M512-6C296.96-6 122 168.96000000000004 122 384S296.96 774 512 774s390-174.96 390-390-174.96-390-390-390z m0 720C330.05 714 182 565.95 182 384s148.05-330 330-330 330 148.05 330 330S693.95 714 512 714z"  horiz-adv-x="1024" />
      
      <glyph glyph-name="guangbo" unicode="&#59054;" d="M896 224a32 32 0 0 0-32 32V512a32 32 0 0 0 64 0v-256a32 32 0 0 0-32-32zM704 64a32 32 0 0 0-32 32v576a32 32 0 0 0 64 0v-576a32 32 0 0 0-32-32z m-192-128a32 32 0 0 0-32 32v832a32 32 0 0 0 64 0v-832a32 32 0 0 0-32-32z m-192 128a32 32 0 0 0-32 32v576a32 32 0 0 0 64 0v-576a32 32 0 0 0-32-32z m-192 160a32 32 0 0 0-32 32V512a32 32 0 0 0 64 0v-256a32 32 0 0 0-32-32z"  horiz-adv-x="1024" />
      
      <glyph glyph-name="article" unicode="&#58898;" d="M853.1-20.399999999999977H167.6c-34.9 0-63.3 28.4-63.3 63.3V728.4c0 34.9 28.4 63.3 63.3 63.3h685.5c34.9 0 63.3-28.4 63.3-63.3v-685.5c0-34.9-28.4-63.3-63.3-63.3z m-685.5 772c-12.8 0-23.3-10.4-23.3-23.3v-685.5c0-12.8 10.4-23.3 23.3-23.3h685.5c12.8 0 23.3 10.4 23.3 23.3V728.4c0 12.8-10.4 23.3-23.3 23.3H167.6zM695.7 562.8H332.9V492h38.5v31.7h122V211h-13.8v-38.5h66.8V211h-11.2V523.7h122.3V492H696v70.8z"  horiz-adv-x="1024" />
      
      <glyph glyph-name="shezhi-fill" unicode="&#59576;" d="M940 300l-76 57.6c0.8 8 1.6 16.8 1.6 26.4s-0.8 18.4-1.6 26.4l76 57.6c20.8 16 26.4 44 12.8 68l-84.8 143.2c-9.6 16.8-28 27.2-47.2 27.2-6.4 0-12-0.8-18.4-3.2L712 668c-15.2 10.4-31.2 19.2-47.2 26.4l-13.6 92c-4 26.4-26.4 45.6-53.6 45.6H426.4c-27.2 0-49.6-19.2-53.6-44.8L360 694.4c-16-7.2-31.2-16-47.2-26.4l-90.4 35.2c-6.4 2.4-12.8 3.2-19.2 3.2-19.2 0-37.6-9.6-46.4-26.4L71.2 536c-13.6-22.4-8-52 12.8-68l76-57.6c-0.8-9.6-1.6-18.4-1.6-26.4s0-16.8 1.6-26.4l-76-57.6c-20.8-16-26.4-44-12.8-68l84.8-143.2c9.6-16.8 28-27.2 47.2-27.2 6.4 0 12 0.8 18.4 3.2L312 100c15.2-10.4 31.2-19.2 47.2-26.4l13.6-92c3.2-25.6 26.4-45.6 53.6-45.6h171.2c27.2 0 49.6 19.2 53.6 44.8l13.6 92.8c16 7.2 31.2 16 47.2 26.4l90.4-35.2c6.4-2.4 12.8-3.2 19.2-3.2 19.2 0 37.6 9.6 46.4 26.4l85.6 144.8c12.8 23.2 7.2 51.2-13.6 67.2zM704 384c0-105.6-86.4-192-192-192S320 278.4 320 384s86.4 192 192 192 192-86.4 192-192z"  horiz-adv-x="1024" />
      
      <glyph glyph-name="sousuo" unicode="&#58927;" d="M912.072815-50.738335c-4.78498 0-9.56996 1.824555-13.220093 5.475711L650.662083 202.923922c-0.285502 0.285502-0.561795 0.579191-0.827855 0.883113l-6.979972 7.948019c-6.671956 7.594979-6.096858 19.11843 1.297552 26.012444 32.130791 29.958312 57.424874 65.413825 75.181283 105.379049 18.374486 41.35692 27.691689 85.472674 27.691689 131.122363 0 86.355787-33.628912 167.542854-94.691639 228.604558-61.062727 61.062727-142.249795 94.691639-228.604558 94.691639s-167.541831-33.628912-228.604558-94.691639c-61.062727-61.062727-94.691639-142.249795-94.691639-228.604558s33.628912-167.542854 94.691639-228.604558c61.062727-61.062727 142.249795-94.691639 228.604558-94.691639 26.15059 0 52.16508 3.130294 77.326133 9.301853 5.090948 1.353834 73.4038 19.189038 120.842229 14.809287 10.282181-0.948605 17.847483-10.05296 16.899902-20.335141s-10.047844-17.853623-20.335141-16.899902c-41.659819 3.845585-107.272165-13.571087-107.930151-13.747095-0.125867-0.033769-0.251733-0.065492-0.3776-0.097214-28.132734-6.91755-57.20998-10.425444-86.425372-10.425444-48.684816 0-95.922676 9.538237-140.402727 28.352745-42.953278 18.166755-81.523735 44.172035-114.644063 77.290317-33.119305 33.119305-59.123562 71.691809-77.29134 114.644063-18.813484 44.479027-28.352745 91.716888-28.352745 140.401704s9.53926 95.922676 28.352745 140.402727c18.167778 42.953278 44.172035 81.524758 77.29134 114.644063 33.119305 33.119305 71.690786 59.123562 114.644063 77.29134 44.480051 18.813484 91.717911 28.352745 140.402727 28.352745s95.922676-9.53926 140.401704-28.352745c42.953278-18.167778 81.524758-44.173059 114.644063-77.29134 33.118282-33.119305 59.123562-71.690786 77.29134-114.644063 18.813484-44.480051 28.351722-91.717911 28.351722-140.402727 0-50.912553-10.399861-100.136651-30.91101-146.305157-17.285688-38.906102-40.96704-73.973782-70.526263-104.47547l242.313791-242.310721c7.302313-7.30129 7.302313-19.138896 0.001023-26.440186C921.642774-48.912757 916.857794-50.738335 912.072815-50.738335zM165.576059 474.112344c-0.696872 0-1.400906 0.038886-2.110057 0.118704-10.260691 1.152243-17.645892 10.404977-16.493649 20.666692 4.838192 43.080168 17.974373 83.934644 39.046295 121.429607 5.058203 9.002025 16.457834 12.19781 25.458835 7.139607 9.002025-5.058203 12.19781-16.45681 7.139607-25.458835-18.605753-33.108049-30.207999-69.202105-34.484396-107.282399C183.060269 481.172133 174.967964 474.112344 165.576059 474.112344z"  horiz-adv-x="1024" />
      
      <glyph glyph-name="fenleicur" unicode="&#58921;" d="M389.806495 349.084793 215.222271 349.084793c-48.203862 0-87.277786-39.073924-87.277786-87.286995l0-174.575014c0-48.208978 39.073924-87.286995 87.277786-87.286995l174.583201 0c48.196699 0 87.269599 39.078017 87.269599 87.286995L477.075071 261.797797C477.076094 310.010869 438.002171 349.084793 389.806495 349.084793zM673.028998 439.373145c26.644847-26.646893 69.845765-26.646893 96.474238 0l106.108666 106.107643c26.647917 26.630521 26.647917 69.814042 0 96.459912L769.50426 748.05039c-26.628474 26.628474-69.829392 26.628474-96.474238 0L566.936705 641.941724c-26.644847-26.646893-26.644847-69.829392 0-96.459912L673.028998 439.373145zM606.643032 611.118718l97.226369 97.207949c9.752108 9.768481 25.588795 9.768481 35.340903 0l97.209996-97.207949c9.768481-9.769504 9.768481-25.590841 0-35.359322l-97.209996-97.207949c-9.752108-9.752108-25.588795-9.752108-35.340903 0l-97.226369 97.207949C596.890924 585.527876 596.890924 601.34819 606.643032 611.118718zM389.806495 768.063189 215.222271 768.063189c-48.203862 0-87.277786-39.073924-87.277786-87.286995l0-174.575014c0-48.211025 39.073924-87.286995 87.277786-87.286995l174.583201 0c48.196699 0 87.269599 39.07597 87.269599 87.286995L477.075071 680.776194C477.076094 728.990289 438.002171 768.063189 389.806495 768.063189zM808.782845 349.084793 634.193505 349.084793c-48.197722 0-87.270623-39.073924-87.270623-87.286995l0-174.575014c0-48.208978 39.073924-87.286995 87.270623-87.286995l174.58934 0c48.197722 0 87.270623 39.078017 87.270623 87.286995L896.053468 261.797797C896.053468 310.010869 856.980567 349.084793 808.782845 349.084793z"  horiz-adv-x="1024" />
      
      <glyph glyph-name="youjiantou" unicode="&#59020;" d="M604.7488 382.340267l-196.292267-196.9024a36.872533 36.872533 0 0 1-1.041066-50.978134 33.8048 33.8048 0 0 1 48.810666-1.019733l218.2144 218.478933c16.648533 16.669867 16.64 43.677867-0.0256 60.330667L455.466667 631.082667a33.493333 33.493333 0 0 1-48.349867-1.041067 36.5312 36.5312 0 0 1 1.041067-50.496l196.590933-197.201067z"  horiz-adv-x="1024" />
      
      <glyph glyph-name="close" unicode="&#59198;" d="M558.669 384l180.312-180.312-46.669-46.67L512 337.332 331.688 157.019l-46.67 46.669L465.332 384 285.019 564.312l46.669 46.67L512 430.668l180.312 180.312 46.67-46.669z"  horiz-adv-x="1024" />
      
      <glyph glyph-name="dashang" unicode="&#59025;" d="M697.51622656 623.62836709c-15.60666094-14.08266651-32.90876631-33.24531533-51.917429-57.46413516h99.52480986c-1.44779502-17.11795606-2.17169297-33.01512891-2.17169297-47.67723105 0-13.55403076 0.72389795-30.89423584 2.17169297-52.0174415h-56.50211338v56.22112792h-352.34446552v-64.87138652H279.77332695c1.44938232 21.99156503 2.16534287 40.78115332 2.16534287 56.35606465 0 16.82903232-0.71596055 34.15177529-2.16534287 51.98727832h108.17030654c-17.23225606 18.08632793-33.82475098 37.63156377-49.77431103 58.63729482 14.12076621 9.32176934 28.24788164 18.63718857 42.36706054 27.95895791 21.74074102-21.74074102 40.87322753-46.40247246 57.39587315-73.97884424-13.39528096-9.21540674-24.2124706-13.41750586-32.43569326-12.61740849h79.77002519c0 25.62375323-0.70961045 54.46694531-2.13676787 86.52640342h58.63888213c-1.42557012-28.06373232-2.13518057-56.90692529-2.13518056-86.52640342h51.94917861c22.8837375 33.64695175 37.08070312 61.06457373 42.57343477 82.25445498 22.38050127-10.40920312 43.50370693-18.67211367 63.3600914-24.78873164zM691.03289815 365.01276856000004a837.88450488 837.88450488 0 0 1-2.17328028-60.6661128c0-20.78030654 0.72389795-41.72730029 2.17328028-62.84256768h-56.49735147V321.50906162H390.3613877v-88.66634502H333.85927432c1.44938232 24.91573008 2.17328028 47.31210703 2.17328027 67.19071641 0 19.83257227-0.72548526 41.49076377-2.17328027 64.97774824l357.17362383 0.00158731zM541.76870234 298.27448847999995c-16.5210583-49.06628877-33.83110107-81.1273333-51.917429-96.1926583-18.08791523-15.06691318-40.72717881-28.11135761-67.93048917-39.1253959-27.19537295-11.02197656-67.60981494-20.17705869-121.22268837-27.46207266-3.51630088 15.12565049-13.37940615 33.03894112-29.58296572 53.74781104 42.36071045 1.74783164 76.17593672 5.77530615 101.45679169 12.09671015 25.2792668 6.31664209 48.24872842 17.04969404 68.89092276 32.19280664 20.64854443 15.1494627 33.31992744 42.40674756 38.01097529 81.77503008 20.76601904-5.67529365 41.53045078-11.3569374 62.29488252-17.03223106zM667.24746435 384.25161768H357.6447081c1.44938232 23.46476045 2.17328028 43.70214375 2.17328028 60.70580068 0 16.88935693-0.72548526 34.94552256-2.17328028 54.15420937h309.60275625v-114.86001005z m-56.50370156 41.33201396v30.06397617H414.14682237v-30.06397617h196.59694042zM571.03099297 263.38929052000003c68.11940039-26.6365749 124.70088955-54.96065684 169.7460539-84.97700771-14.11282881-12.84600761-26.62387471-26.42385058-37.53790136-40.74305361-31.97214492 23.53460977-85.87235479 50.6125081-161.71332978 81.2495707 11.77127403 17.48943018 21.60262881 32.31028125 29.50517724 44.47049062z"  horiz-adv-x="1024" />
      
      <glyph glyph-name="fenxiang" unicode="&#58900;" d="M94.490772 831.906259c-16.598379 0-29.997071-13.398692-29.99707-29.99707v-835.918368c0-16.598379 13.398692-29.997071 29.99707-29.99707s29.997071 13.398692 29.997071 29.99707v835.918368c0 16.498389-13.398692 29.997071-29.997071 29.99707zM930.40914-4.012108h-835.918368c-16.598379 0-29.997071-13.398692-29.99707-29.997071s13.398692-29.997071 29.99707-29.99707h835.918368c16.598379 0 29.997071 13.398692 29.99707 29.99707 0 16.498389-13.398692 29.997071-29.99707 29.997071zM951.207109 822.707158c-11.698858 11.698858-30.697002 11.698858-42.39586 0L385.562347 299.558246c-11.698858-11.698858-11.698858-30.697002 0-42.39586s30.697002-11.698858 42.39586 0l523.248902 523.248902C962.905966 792.010155 962.905966 811.0083 951.207109 822.707158zM930.40914 831.906259h-239.976565c-16.598379 0-29.997071-13.398692-29.997071-29.99707s13.398692-29.997071 29.997071-29.997071h239.976565c16.598379 0 29.997071 13.398692 29.99707 29.997071 0 16.498389-13.398692 29.997071-29.99707 29.99707zM334.467337 831.906259h-239.976565c-16.598379 0-29.997071-13.398692-29.99707-29.99707s13.398692-29.997071 29.99707-29.997071h239.976565c16.598379 0 29.997071 13.398692 29.997071 29.997071 0 16.498389-13.398692 29.997071-29.997071 29.99707zM930.40914 831.906259c-16.598379 0-29.997071-13.398692-29.997071-29.99707v-239.976565c0-16.598379 13.398692-29.997071 29.997071-29.997071s29.997071 13.398692 29.99707 29.997071v239.976565c0 16.498389-13.398692 29.997071-29.99707 29.99707zM930.40914 235.964457c-16.598379 0-29.997071-13.398692-29.997071-29.997071v-239.976565c0-16.598379 13.398692-29.997071 29.997071-29.99707s29.997071 13.398692 29.99707 29.99707v239.976565c0 16.498389-13.398692 29.997071-29.99707 29.997071z"  horiz-adv-x="1024" />
      
      <glyph glyph-name="cnblogs" unicode="&#58887;" d="M79.14445453 559.43022864c5.2554008-93.97157143 22.79127899-213.75538354 70.9479108-344.56838713a1173.96716111 1173.96716111 0 0 1 63.51169741-142.52146453c34.91087675-3.46784951 71.19816799-6.02404784 108.77249616-7.47196443 133.58370809-5.11239673 254.90481429 5.1302722 360.78147735 22.29076466-36.35879331 1.60879617-73.00359478 3.43209849-109.89865346 5.48778243-84.39029652 4.70125989-167.27904996 10.43929954-248.61263376 17.08899038 70.41164541 9.65277699 168.78059303 31.62178238 275.40802762 84.85505984 68.46321452 34.1779807 123.26953711 72.71758657 165.13398842 107.02069589a1558.37470386 1558.37470386 0 0 1 36.32304226-120.39157958c37.55645266-108.50436346 83.13901061-201.49278167 128.31043176-278.8401261-4.34374963 143.21860954-20.43171127 308.1559673-58.59593136 487.98362732A2743.03320924 2743.03320924 0 0 1 807.87548992 633.43485215c-23.97106283-66.38965501-80.85094496-196.2731319-208.35697863-313.75100285-124.09181072-114.33178066-254.06466518-160.7187367-321.72348163-179.82766003a5027.03575947 5027.03575947 0 0 1-124.53869855 274.47850096 5013.76676623 5013.76676623 0 0 1-74.11187658 145.09553841zM567.91460444 680.50107767m-196.45188703 0a196.45188704 196.45188704 0 1 1 392.90377405 0 196.45188704 196.45188704 0 1 1-392.90377405 0ZM563.07034043 673.20786841m-144.97040983 0a144.97040981 144.97040981 0 1 1 289.94081965 0 144.97040981 144.97040981 0 1 1-289.94081965 0Z"  horiz-adv-x="1024" />
      
      <glyph glyph-name="mulu" unicode="&#58889;" d="M221.45141293-57.45366717000002h-8.04398081c-11.79783853 0-21.4506155 9.65277699-21.45061551 21.45061549V803.1986536c0 11.79783853 9.65277699 21.4506155 21.45061551 21.4506155h8.04398081c11.79783853 0 21.4506155-9.65277699 21.45061551-21.4506155v-839.21958079c0-11.779963-9.65277699-21.43273999-21.45061551-21.43273998zM215.10560585 230.64597462999996m-123.2159106 0a123.21591058 123.21591058 0 1 1 246.43182118 0 123.21591058 123.21591058 0 1 1-246.43182118 0ZM215.10560585 237.45654506000005m-72.05619259 0a72.05619261 72.05619261 0 1 1 144.11238517 0 72.05619261 72.05619261 0 1 1-144.11238517 0ZM215.10560585 532.4025083m-123.2159106 0a123.21591058 123.21591058 0 1 1 246.43182118 0 123.21591058 123.21591058 0 1 1-246.43182118 0ZM215.10560585 539.21307872m-72.05619259 0a72.05619261 72.05619261 0 1 1 144.11238517 0 72.05619261 72.05619261 0 1 1-144.11238517 0ZM835.43953085 623.5676242100001H438.63889495c-11.79783853 0-21.4506155 9.65277699-21.45061549 21.4506155v16.08796164c0 11.79783853 9.65277699 21.4506155 21.45061549 21.45061551h396.81851141c11.79783853 0 21.4506155-9.65277699 21.45061552-21.45061551v-16.08796164c-0.01787552-11.79783853-9.67065249-21.4506155-21.46849103-21.4506155zM771.10555984 450.62203668H438.63889495c-11.79783853 0-21.4506155 9.65277699-21.45061549 21.45061549v13.40663473c0 11.79783853 9.65277699 21.4506155 21.45061549 21.45061548h332.46666489c11.79783853 0 21.4506155-9.65277699 21.45061551-21.45061548v-13.40663473c0-11.79783853-9.65277699-21.4506155-21.45061551-21.45061549zM835.43953085 258.92503607000003H438.63889495c-11.79783853 0-21.4506155 9.65277699-21.45061549 21.45061549v24.13194247c0 11.79783853 9.65277699 21.4506155 21.45061549 21.45061548h396.81851141c11.79783853 0 21.4506155-9.65277699 21.45061552-21.45061548v-24.13194247c-0.01787552-11.79783853-9.67065249-21.4506155-21.46849103-21.45061549zM771.10555984 90.00143892999995H438.63889495c-11.79783853 0-21.4506155 9.65277699-21.45061549 21.4506155v21.45061551c0 11.79783853 9.65277699 21.4506155 21.45061549 21.45061553h332.46666489c11.79783853 0 21.4506155-9.65277699 21.45061551-21.45061553v-21.45061551c0-11.79783853-9.65277699-21.4506155-21.45061551-21.4506155z"  horiz-adv-x="1024" />
      
      <glyph glyph-name="lianjie" unicode="&#58895;" d="M569.6 25.6h-38.4c-12.8 0-25.6 12.8-25.6 25.6s12.8 25.6 25.6 25.6h38.4v192c0 19.2 6.4 38.4 19.2 51.2 12.8 12.8 32 19.2 51.2 19.2h275.2c19.2 0 38.4-6.4 57.6-19.2 12.8-12.8 25.6-32 25.6-51.2v-249.6c0-19.2-6.4-38.4-25.6-51.2-12.8-12.8-32-19.2-57.6-19.2H640c-19.2 0-38.4 6.4-51.2 19.2-12.8 12.8-25.6 32-25.6 51.2v6.4h6.4zM102.4 857.6h275.2c19.2 0 38.4-6.4 57.6-19.2 12.8-12.8 19.2-32 19.2-51.2v-243.2c0-32-6.4-44.8-19.2-64-19.2-12.8-38.4-19.2-57.6-19.2H262.4v-25.6c0-12.8-12.8-25.6-25.6-25.6s-25.6 12.8-25.6 25.6v25.6H102.4c-19.2 0-38.4 6.4-57.6 19.2-12.8 12.8-19.2 32-19.2 57.6V787.2c0 19.2 6.4 38.4 25.6 51.2 12.8 12.8 32 19.2 51.2 19.2z m275.2-44.8H102.4c-6.4 0-19.2 0-25.6-6.4-6.4-6.4-6.4-12.8-6.4-19.2v-192h339.2v192c0 6.4-6.4 12.8-6.4 19.2-6.4 0-19.2 6.4-25.6 6.4zM70.4 550.4v-12.8c0-6.4 0-12.8 6.4-19.2 6.4-6.4 12.8-6.4 25.6-6.4h275.2c6.4 0 19.2 0 25.6 6.4 6.4 6.4 6.4 12.8 6.4 19.2v12.8H70.4z m544-473.6h339.2v192c0 6.4 0 12.8-6.4 19.2-6.4 6.4-12.8 6.4-25.6 6.4h-275.2c-6.4 0-19.2 0-19.2-6.4-12.8-6.4-12.8-12.8-12.8-19.2v-192z m339.2-51.2H614.4v-12.8c0-6.4 0-12.8 6.4-19.2 6.4-6.4 12.8-6.4 25.6-6.4h275.2c6.4 0 19.2 6.4 25.6 6.4 6.4 6.4 6.4 12.8 6.4 19.2v12.8zM217.6 275.2c0 12.8 12.8 25.6 25.6 25.6s25.6-12.8 25.6-25.6v-32c0-12.8-12.8-25.6-25.6-25.6s-25.6 12.8-25.6 25.6v32z m0 96c0 12.8 12.8 25.6 25.6 25.6 12.8-6.4 19.2-12.8 19.2-25.6v-32c0-12.8-12.8-25.6-25.6-25.6s-25.6 12.8-25.6 25.6v32h6.4z m0-185.6c0 12.8 12.8 25.6 25.6 25.6s25.6-12.8 25.6-25.6v-32c-6.4-12.8-12.8-25.6-25.6-25.6s-25.6 12.8-25.6 25.6v32z m160-108.8c12.8 0 25.6-12.8 25.6-25.6s-12.8-25.6-25.6-25.6h-32c-12.8 0-25.6 12.8-25.6 25.6s12.8 25.6 25.6 25.6h32z m89.6 0c12.8 0 25.6-12.8 25.6-25.6s-12.8-25.6-25.6-25.6h-32c-12.8 0-25.6 12.8-25.6 25.6s12.8 25.6 25.6 25.6h32z m-249.6 19.2c0 12.8 12.8 25.6 25.6 25.6s25.6-12.8 25.6-25.6v-19.2h19.2c12.8 0 25.6-12.8 25.6-25.6s-12.8-25.6-25.6-25.6h-44.8c-6.4 0-19.2 6.4-19.2 12.8v57.6h-6.4z"  horiz-adv-x="1024" />
      
      <glyph glyph-name="website" unicode="&#58906;" d="M68.266667-59.050666999999976h955.733333V759.466667a68.266667 68.266667 0 0 1-68.266667 68.266666H136.533333a68.266667 68.266667 0 0 1-68.266666-68.266666v-818.517334zM136.533333 896h819.2a136.533333 136.533333 0 0 0 136.533334-136.533333v-886.784H0V759.466667a136.533333 136.533333 0 0 0 136.533333 136.533333zM49.083733 486.4V554.666667h1001.745067v-68.266667zM372.9408 95.09546699999999l-48.605867-47.9232-161.109333 163.498666 161.109333 163.157334 48.605867-47.9232-113.800533-115.3024zM703.010133 95.09546699999999l48.605867-47.9232 161.109333 163.498666-161.109333 163.157334-48.605867-47.9232 113.800534-115.3024zM623.342933 395.0592l58.504534-35.157333-203.093334-337.851734-58.504533 35.157334zM204.8 691.2m-68.266667 0a68.266667 68.266667 0 1 1 136.533334 0 68.266667 68.266667 0 1 1-136.533334 0ZM409.6 691.2m-68.266667 0a68.266667 68.266667 0 1 1 136.533334 0 68.266667 68.266667 0 1 1-136.533334 0ZM614.4 691.2m-68.266667 0a68.266667 68.266667 0 1 1 136.533334 0 68.266667 68.266667 0 1 1-136.533334 0Z"  horiz-adv-x="1092" />
      
      <glyph glyph-name="unfollower" unicode="&#58902;" d="M935.161672 758.391922C878.432647 816.902524 803.01498 849.139739 722.8021 849.139739c-75.470879 0-147.870816-28.883841-203.847711-81.401961l-6.977925-6.487761-6.978948 6.535857C449.019597 820.255899 376.642173 849.139739 301.17641 849.139739c-80.21288 0-155.61622-32.257681-212.359572-90.74884-57.047274-58.911738-88.469937-137.123031-88.469937-220.35978 0-83.259262 31.422663-161.470555 88.469937-220.407875l360.713388-372.063901c16.698311-17.207917 38.884612-26.699082 62.466704-26.699082 23.586185 0 45.77351 9.491165 62.47182 26.699082 0 0 356.737844 367.969653 360.691899 372.063901 57.068763 58.909691 88.491427 137.123031 88.491427 220.407875C1023.653099 621.2463789999999 992.207923 699.4597180000001 935.161672 758.391922L935.161672 758.391922zM903.296941 350.20633599999996L542.583552-21.856540999999993c-8.138354-8.443299-19.024286-13.095249-30.608112-13.095249-11.582803 0-22.442128 4.631484-30.608112 13.115716L120.680547 350.184847c-48.563042 50.095955-75.306126 116.773564-75.306126 187.824783 0 71.000054 26.743084 137.724735 75.306126 187.771571 48.279586 49.79715 112.443955 77.216639 180.702572 77.216639 64.094784 0 125.635395-24.629957 173.33579-69.306482l37.256532-34.930557 37.284161 34.930557c47.672766 44.698015 109.234867 69.306482 173.330674 69.306482 68.284199 0 132.448568-27.445072 180.707688-77.216639 48.563042-50.046836 75.306126-116.77254 75.306126-187.771571C978.603067 466.978876 951.859983 400.302291 903.296941 350.20633599999996L903.296941 350.20633599999996zM903.296941 350.20633599999996M270.429129 709.599659l-2.490727-0.025583-0.041956-0.048095c-70.797439-1.36816-127.98286-59.394738-127.98286-130.469494 0-11.860119 9.650801-21.51092 21.509896-21.51092 11.860119 0 21.516036 9.650801 21.516036 21.532409 0 48.237631 39.258119 87.517239 87.512123 87.517239 11.865235 0 21.516036 9.650801 21.516036 21.516036C291.966655 699.9703480000001 282.289248 709.599659 270.429129 709.599659L270.429129 709.599659zM270.429129 709.599659"  horiz-adv-x="1024" />
      
      <glyph glyph-name="fanhui" unicode="&#58894;" d="M532.526499-8.817574L139.506311 384.202615 532.526499 777.222803c12.258185 12.258185 12.432147 32.892131-0.187265 45.51052-12.707416 12.707416-32.995485 12.703323-45.511543 0.187265L75.166957 411.260877c-7.120165-7.120165-10.163477-17.065677-8.990768-26.624381-1.500167-9.755178 1.5104-20.010753 8.990768-27.491121l411.660734-411.660734c12.258185-12.258185 32.892131-12.432147 45.511543 0.187265 12.707416 12.707416 12.7023 32.995485 0.187265 45.51052z"  horiz-adv-x="1024" />
      
      <glyph glyph-name="zhiding" unicode="&#59193;" d="M870.074806 436.392378m-37.577982 0a37.577982 37.577982 0 1 1 75.155964 0 37.577982 37.577982 0 1 1-75.155964 0ZM776.129852 530.337332m-37.577982 0a37.577982 37.577982 0 1 1 75.155963 0 37.577982 37.577982 0 1 1-75.155963 0ZM681.462244 625.00494m-37.577981 0a37.577982 37.577982 0 1 1 75.155963 0 37.577982 37.577982 0 1 1-75.155963 0ZM922.105857 838.910374h-788.414961c-19.511644 0-35.410021-15.898377-35.410021-35.410021s15.898377-35.410021 35.410021-35.410021h321.580805l-309.295695-309.295695c-13.730416-13.730416-13.730416-36.132675 0-49.863091 6.503881-6.503881 15.898377-10.117149 24.570218-10.117149 8.671842 0 18.066337 3.613267 24.570219 10.117149l290.506704 290.506704v-747.946366c0-19.511644 15.898377-35.410021 35.410022-35.410021s35.410021 15.898377 35.410021 35.410021V701.60621c13.730416-12.285109 34.687368-12.285109 48.417784 1.445307 13.730416 13.730416 13.730416 36.132675 0 49.863091l-16.62103 16.621031h333.865913c19.511644 0 35.410021 15.898377 35.410022 35.410021 0 18.066337-15.898377 33.964714-35.410022 33.964714z"  horiz-adv-x="1024" />
      
      <glyph glyph-name="follower" unicode="&#59457;" d="M698.667 800C625.536 800 559.434 770.881 512 723.973 464.566 770.881 398.464 800 325.333 800 181.003 800 64 686.631 64 546.783c0-57.825 20.018-111.111 53.686-153.739l352.585-406.957C480.525-25.010999999999967 495.417-32 512-32s31.475 6.989 41.729 18.087c0 0 347.702 400.791 352.377 406.694l0.208 0.263C939.982 435.672 960 488.958 960 546.783 960 686.631 842.997 800 698.667 800zM317.263 413.588c-13.204-11.637-33.528-10.356-45.165 2.848l-25.7 29.159c-11.637 13.203-10.356 33.528 2.848 45.165s33.528 10.356 45.165-2.848l25.7-29.159c11.637-13.204 10.355-33.528-2.848-45.165zM320 608c-0.168 0-0.333 0.01-0.5 0.013v-0.025c-34.948-0.269-63.219-28.54-63.487-63.487h-0.025c0.003-0.167 0.013-0.332 0.013-0.5 0-17.673-14.327-32-32-32s-32 14.327-32 32c0 0.168 0.01 0.333 0.013 0.5h-0.006c0.27 70.295 57.199 127.224 127.494 127.494v-0.006c0.167 0.003 0.332 0.013 0.5 0.013 17.673 0 32-14.327 32-32C352 622.327 337.673 608 320 608z"  horiz-adv-x="1024" />
      
      <glyph glyph-name="keaide" unicode="&#58892;" d="M334.848 552.96q22.528 28.672 49.152 50.176 22.528 18.432 50.176 33.792t57.344 13.312q43.008-3.072 71.68-20.48t45.568-43.008 23.04-58.368 4.096-66.56-13.312-64.512-27.136-57.856-34.304-49.664-36.864-40.96q-27.648-28.672-58.368-54.784t-58.368-46.08-49.664-31.744-32.256-11.776q-12.288 0-32.256 12.288t-44.544 32.256-52.224 46.08-55.296 52.736q-17.408 17.408-38.912 39.424t-40.448 48.128-32.256 57.344-14.336 67.072q-2.048 34.816 7.168 66.048t27.136 55.808 44.032 41.472 58.88 24.064 65.024-6.656 58.88-33.28q30.72-22.528 58.368-54.272zM611.328 650.24q13.312 0 25.6-1.024 11.264-1.024 23.552-3.072t21.504-6.144 19.456-10.752 19.456-12.8l20.48-16.384q6.144 6.144 13.312 11.264 13.312 10.24 35.84 23.552 12.288 7.168 28.672 10.752t33.28 2.56 33.28-6.656 27.648-17.92q31.744-33.792 37.888-66.048t-1.536-60.416-23.04-49.664-27.648-33.792q-23.552-23.552-44.544-40.96t-51.712-39.936q-16.384-11.264-34.304-19.456t-27.136-8.192q-9.216-1.024-19.968 7.68t-26.112 19.968q-7.168 5.12-13.312 12.288l-12.288 11.264-12.288 12.288q11.264 20.48 18.432 46.08 6.144 21.504 9.216 50.688t-3.072 62.976q-7.168 31.744-18.944 55.296t-23.04 37.888q-13.312 17.408-28.672 28.672z"  horiz-adv-x="1024" />
      
      <glyph glyph-name="like-fill" unicode="&#58984;" d="M736 768c-65.952 0-128.576-25.024-176.384-70.464-4.576-4.32-28.672-28.736-47.328-47.68L464.96 696.96C417.12 742.784 354.272 768 288 768c-141.152 0-256-114.848-256-256 0-82.432 41.184-144.288 76.48-182.496l316.896-320.128C450.464-15.67999999999995 478.304-32 512-32c33.696 0 61.568 16.32 86.752 41.504l316.736 320 2.208 2.464C955.904 379.616 992 424.608 992 512 992 653.152 877.152 768 736 768z"  horiz-adv-x="1024" />
      
      <glyph glyph-name="fuzhi" unicode="&#58893;" d="M864 160C846.336 160 832 174.336 832 192L832 736 352 736C334.32 736 320 750.336 320 768 320 785.664 334.32 800 352 800L832 800C867.344 800 896 771.344 896 736L896 192C896 174.336 881.68 160 864 160ZM704 544 704 32C704-3.344 675.344-32 640-32L192-32C156.656-32 128-3.344 128 32L128 544C128 579.344 156.656 608 192 608L640 608C675.344 608 704 579.344 704 544ZM192 32 640 32 640 544 192 544 192 32Z"  horiz-adv-x="1024" />
      
      <glyph glyph-name="browse-fill" unicode="&#59108;" d="M376.16 344.06399999999996v71.872a128.16 128.16 0 0 0 128 128.064c70.592 0 128-57.44 128-128.064v-71.872a128.16 128.16 0 0 0-128-128.064c-70.592 0-128 57.44-128 128.064m494.88 80.96c-2.048 4.704-26.72 59.936-78.88 116.928C733.696 605.856 640.576 672 504.16 672s-229.6-66.24-288-130.016c-52.096-56.864-76.608-111.68-78.208-115.488-12.736-24.896-13.056-60.896-2.016-82.816 0.48-1.248 24.32-60.96 80.224-121.44 57.984-62.72 150.464-126.24 288-126.24 137.504 0 230.08 63.68 288 126.208 55.872 60.32 79.52 119.616 79.552 119.776 11.744 24.896 10.88 61.664-0.672 83.008"  horiz-adv-x="1024" />
      
      <glyph glyph-name="brush-fill" unicode="&#59109;" d="M879.04 572.64l-176.8 176.768a64.032 64.032 0 0 1-90.464-0.224l-67.36-67.392 44.864-44.64 0.96 0.192h0.032l176.64-176.576 30.304-30.4 14.848-14.88 66.72 66.72a64 64 0 0 1 0.224 90.432M325.888 80.63999999999999l-13.6 13.632-88.32 88.64-14.08 14.144-40.704 43.392L160 250.24v-156.128c0-35.136 28.576-63.68 63.68-63.68h154.208l-11.648 11.2-40.352 38.976zM545.024 592.1279999999999l-45.248 45.056L179.616 317.024l45.248-45.248 176.544-176.704 45.184-45.024 318.976 318.976-43.936 46.496z"  horiz-adv-x="1024" />
      
      <glyph glyph-name="document-fill" unicode="&#59123;" d="M833.728 555.8720000000001l-163.904 178.144c-7.744 8.448-18.4 15.552-29.824 21.28v-211.2l202.4-0.064c-2.752 4.192-5.536 8.448-8.64 11.84M640 320h-256a32 32 0 1 0 0 64h256a32 32 0 1 0 0-64m0-160h-256a32 32 0 1 0 0 64h256a32 32 0 1 0 0-64m223.808 320h-223.744A64.128 64.128 0 0 0 576 544.1279999999999V768H223.808A64 64 0 0 1 160 703.936v-639.84A64 64 0 0 1 223.744 0h576.512A64 64 0 0 1 864 64.15999999999997V478.368c0 0.544-0.16 1.12-0.192 1.664"  horiz-adv-x="1024" />
      
      <glyph glyph-name="label-fill" unicode="&#59142;" d="M497.376 503.712c0 61.76 50.24 112 112 112s112-50.24 112-112-50.24-112-112-112-112 50.24-112 112m361.696 164.352c0 35.2-28.608 63.84-62.624 63.84h-0.064C795.296 731.936 684.704 736 601.28 736c-96.16 0-104.8-4.64-115.2-15.04l-148.704-148.704-190.72-190.72c-24.96-24.96-24.896-65.6 0.16-90.656l271.232-271.232c12.16-12.128 28.256-18.784 45.44-18.784 17.152 0 33.184 6.624 45.184 18.624l212.224 212.224 127.2 127.2c11.2 11.2 21.76 21.76 10.976 309.152"  horiz-adv-x="1024" />
      
      <glyph glyph-name="right" unicode="&#59169;" d="M822.464 630.656a28.256 28.256 0 0 1-43.072-1.312l-352.96-417.664-181.92 212.992a28.288 28.288 0 0 1-43.104 1.088 37.12 37.12 0 0 1-0.96-48.256l204.096-238.944c5.76-6.752 13.696-10.56 22.016-10.56h0.096a29.088 29.088 0 0 1 22.048 10.656L823.68 582.4c11.52 13.728 11.008 35.328-1.216 48.256"  horiz-adv-x="1024" />
      
      <glyph glyph-name="task-fill" unicode="&#59186;" d="M666.304 422.464l-175.616-192c-6.08-6.624-14.656-10.4-23.648-10.4h-0.16a32.064 32.064 0 0 0-23.68 10.688l-85.728 96a32 32 0 1 0 47.744 42.624l62.112-69.6 151.712 165.888a32.032 32.032 0 0 0 47.264-43.2m133.568 312.32H736c-0.064 0 0-20.544 0-32.32v-63.36a64.16 64.16 0 0 0-63.808-64.384h-320.32A64.16 64.16 0 0 0 288 639.072v63.36c0 11.84-0.128 21.472-0.128 32.32H223.744A63.808 63.808 0 0 1 160 671.04v-576.512c0-35.168 28.576-63.744 63.744-63.744H800.32A63.808 63.808 0 0 1 864 94.49599999999998V671.04c0 35.136-28.8 63.744-64.128 63.744M668.608 746.56a42.56 42.56 0 0 1-36.8 21.44H395.84c-15.776 0-29.44-8.64-36.864-21.408a43.136 43.136 0 0 1-6.016-21.728v-42.496c0-23.84 19.2-43.2 42.88-43.2h235.968c23.616 0 42.816 19.36 42.816 43.2V724.864c0 8-2.272 15.264-6.016 21.696"  horiz-adv-x="1024" />
      
      <glyph glyph-name="marketing-fill" unicode="&#59211;" d="M733.31712 542.8070399999999l127.24736 124.07296a41.50272 41.50272 0 1 1-57.46176 59.89888l-127.24224-124.07296a41.50272 41.50272 0 0 1 57.45664-59.89888zM143.42144 327.43424000000005c-0.82432-14.09024 4.46464-27.85792 14.10048-38.17472l235.80672-252.43136c46.85312-46.85312 88.54528 0 88.54528 0l319.07328 319.06816a83.72736 83.72736 0 0 1 24.52992 59.20256v138.3936c0.12288 0.10752 0.01536 0 0.12288 0.10752l-53.76-53.76c-34.05824-34.06336-102.4-39.89504-142.08 1.06496-39.04 41.6-31.49824 102.47168 2.56 136.53504L689.92 691.2c-4.48 0 0.57344 0.1024-4.53632 0.1024h-156.88704c-21.83168 0-42.8032-8.5248-58.43456-23.76704l-310.61504-304.65536c-11.35616-12.29824-15.40096-24.71936-16.0256-35.44576z"  horiz-adv-x="1024" />
      
      <glyph glyph-name="comments" unicode="&#58903;" d="M832 512c0 176.8-186.2 320-416 320S0 688.8 0 512c0-68.6 28.2-131.8 76-184-26.8-60.4-71-108.4-71.6-109-4.4-4.6-5.6-11.4-3-17.4S9.6 192 16 192c73.2 0 133.8 24.6 177.4 50 64.4-31.4 140.6-50 222.6-50 229.8 0 416 143.2 416 320z m244-440c47.8 52 76 115.4 76 184 0 133.8-107 248.4-258.6 296.2 1.8-13.2 2.6-26.6 2.6-40.2 0-211.8-215.4-384-480-384-21.6 0-42.6 1.6-63.4 3.8C415.6 16.8 563.6-64 736-64c82 0 158.2 18.4 222.6 50 43.6-25.4 104.2-50 177.4-50 6.4 0 12.2 3.8 14.6 9.6 2.6 5.8 1.4 12.6-3 17.4-0.6 0.6-44.8 48.4-71.6 109z"  horiz-adv-x="1152" />
      
      <glyph glyph-name="interactive" unicode="&#58939;" d="M42.666667-85.33333300000004V554.666667c0 46.933333 38.4 85.333333 85.333333 85.333333h85.333333v-85.333333H149.333333c-12.8 0-21.333333-8.533333-21.333333-21.333334V128l42.666667 42.666667h448c12.8 0 21.333333 8.533333 21.333333 21.333333V213.33333300000004h85.333333v-42.666666c0-46.933333-38.4-85.333333-85.333333-85.333334H213.333333l-170.666666-170.666666z m938.666666 213.333333l-170.666666 170.666667H384c-46.933333 0-85.333333 38.4-85.333333 85.333333V768c0 46.933333 38.4 85.333333 85.333333 85.333333h512c46.933333 0 85.333333-38.4 85.333333-85.333333v-640zM384 746.666667v-341.333334c0-12.8 8.533333-21.333333 21.333333-21.333333H853.333333l42.666667-42.666667V746.666667c0 12.8-8.533333 21.333333-21.333333 21.333333h-469.333334c-12.8 0-21.333333-8.533333-21.333333-21.333333z m298.666667-170.666667c0 34.133333 29.866667 64 64 64s64-29.866667 64-64S780.8 512 746.666667 512 682.666667 541.866667 682.666667 576z m-213.333334 0c0 34.133333 29.866667 64 64 64s64-29.866667 64-64S567.466667 512 533.333333 512 469.333333 541.866667 469.333333 576z"  horiz-adv-x="1024" />
      
      <glyph glyph-name="code" unicode="&#59122;" d="M541.141333 627.136l61.717334-16.938667-132.394667-482.474666-61.717333 16.938666 132.394666 482.474667zM329.002667 597.333333l44.885333-45.610666-175.36-172.586667 175.04-167.573333-44.266667-46.229334L106.666667 378.496 329.002667 597.333333z m355.882666 0l222.336-218.837333L684.586667 165.333333l-44.266667 46.229334 175.018667 167.573333L640 551.722667 684.885333 597.333333z"  horiz-adv-x="1024" />
      
      <glyph glyph-name="browse" unicode="&#59205;" d="M512 661.333333c131.946667 0 252.245333-80.512 360.874667-241.536a64 64 0 0 0 2.410666-67.712l-2.410666-3.882666-6.058667-8.853334C759.786667 184.234667 641.493333 106.666667 512 106.666667c-131.946667 0-252.245333 80.512-360.874667 241.536a64 64 0 0 0-2.410666 67.712l2.410666 3.882666 6.058667 8.853334C264.213333 583.765333 382.506667 661.333333 512 661.333333z m0-64c-105.770667 0-206.037333-65.749333-301.952-204.757333L204.181333 384l5.888-8.597333C306.069333 236.352 406.314667 170.666667 512 170.666667c105.770667 0 206.037333 65.749333 301.952 204.757333l5.866667 8.576-5.888 8.597333C717.930667 531.648 617.685333 597.333333 512 597.333333z m0-77.482666a141.482667 141.482667 0 1 0 0-282.944 141.482667 141.482667 0 0 0 0 282.944z m0-64a77.482667 77.482667 0 1 1 0-154.944 77.482667 77.482667 0 0 1 0 154.944z"  horiz-adv-x="1024" />
      
      <glyph glyph-name="collection-fill" unicode="&#59293;" d="M490.261333 722.56a49.066667 49.066667 0 0 0 64.064-19.178667l1.664-3.093333 87.850667-177.813333 196.352-28.501334a49.066667 49.066667 0 0 0 29.717333-81.066666l-2.538666-2.645334L725.333333 272l33.536-195.349333a49.066667 49.066667 0 0 0-68.010666-53.269334l-3.157334 1.514667L512 117.141333l-175.701333-92.266666a49.066667 49.066667 0 0 0-71.637334 48.426666l0.469334 3.328L298.666667 271.978667 156.629333 410.24a49.066667 49.066667 0 0 0 23.893334 83.114667l3.285333 0.597333 196.352 28.501333 87.850667 177.813334a49.066667 49.066667 0 0 0 22.250666 22.272z"  horiz-adv-x="1024" />
      
      <glyph glyph-name="flashlight-fill" unicode="&#61347;" d="M554.666667 469.333333h298.666666l-384-554.666666v384H170.666667l384 554.666666z"  horiz-adv-x="1024" />
      
      <glyph glyph-name="dianzan" unicode="&#58996;" d="M73.82-33.17999999999995h180.3c5.1 0 9.74 1.93 13.28 5.07 1.65-0.48 3.02-0.8 3.98-1.01l0.39-0.11c8.35-2.39 20.97-6 148.77-35.44 0.06-0.02 0.16-0.04 0.22-0.05l0.23-0.05c15.67-3.49 98.07-20.92 182.15-20.92h175.73c37.29 0 61.43 12.17 75.97 38.31 0.24 0.43 0.46 0.87 0.67 1.31l0.04 0.07c2.15 4.53 6.29 13.88 9.9 25.65 3.19 10.38 4.04 34.51-5.03 54.94 12.04 4.91 22.19 12.16 30.6 21.81 14.52 16.65 20.52 37.21 25.35 53.72 0.95 3.26 1.85 6.34 2.78 9.26 7.08 22.45 9.63 56.19-5.27 80.15 11.4 7.39 21.07 18.13 28.71 32.01 12.13 22.05 16.3 47.28 18.09 58.07 2.81 17.11 0.17 50.33-18.19 73.6 8.37 6.1 14.35 13.27 18.56 19.9 11.28 17.76 13.61 37.37 13.99 47.5 0.16 3.82 0.3 5.91 0.42 7.75 0.25 3.66 0.39 6.08 0.39 13.24 0 25.81-13.83 57.36-52.69 68.47l-0.43 0.12c-1.53 0.4-2.96 0.79-4.36 1.17-26.37 7.19-41.24 11.26-320.54 11.5 19.35 59.38 22.05 79.29 22.05 148.81 0 42-13.45 84.41-37.88 119.42-23.26 33.33-51.73 53.23-76.17 53.23-32.22 0-51.81-26.38-52.14-51.9-0.78-63.66-19.92-218.92-180.47-285.41-0.47-0.19-1.38-0.51-2.22-0.81-3.55 5.56-9.76 9.26-16.85 9.26H73.82c-11.05 0-20-8.95-20-20v-518.64c0-11.05 8.96-20 20-20z m207.76 510.69c0.54 0.21 1.46 0.54 2.35 0.85 1.38 0.48 2.95 1.03 4.51 1.67 71.47 29.6 125.61 77.54 160.92 142.5 35.6 65.49 43.73 133.7 44.29 179.39 0.05 4.04 3.09 12.4 12.15 12.4 7.54 0 25.98-11.21 43.37-36.12 11.46-16.43 30.69-50.81 30.69-96.53 0-74.49-2.84-85.45-28.72-162.42a20.007 20.007 0 0 1 18.96-26.38c300.68 0 315.42-4.02 337.72-10.1 1.46-0.4 2.94-0.8 4.52-1.22 19.41-5.63 23.49-19.38 23.49-29.95 0-6.17-0.1-7.72-0.3-10.55-0.13-1.99-0.3-4.46-0.48-8.83v-0.08c-0.75-20.04-8.9-43.92-43.51-43.92h-116.3c-11.05 0-20-8.95-20-20s8.95-20 20-20h114.27c9.06 0 15.69-2.84 20.86-8.93 10.48-12.34 12.24-34.57 10.82-43.17-7.85-47.46-23.19-68.63-49.76-68.63h-96.2c-11.05 0-20-8.95-20-20s8.95-20 20-20h83.12c13.4 0 18.26-4.52 20.75-7.91 7.75-10.57 6.76-32.71 1.89-48.16-1.05-3.32-2.05-6.76-3.03-10.08-8.91-30.49-15.95-54.58-62.8-54.58h-65.18c-11.05 0-20-8.95-20-20s8.95-20 20-20h63.2c3.68 0 5.84-1.02 7.97-3.75 6.83-8.79 7.16-27.13 6.02-31.71-2.85-9.27-6.15-16.69-7.6-19.79-5-8.79-12.56-17.21-40.71-17.21H603.13c-81.57 0-164.28 17.91-173.44 19.96l-0.25 0.05c-126.72 29.19-139.21 32.76-146.67 34.9l-1.22 0.35c-0.83 0.24-1.2 0.34-2.01 0.46-1.47 0.31-3.52 1.01-5.42 1.98V473.96c1.63 1.3 3.58 2.3 5.77 2.96 0.57 0.17 1.14 0.37 1.69 0.59z m-187.76 7.95h140.3v-478.64H93.82V485.46z"  horiz-adv-x="1024" />
      
      <glyph glyph-name="time-fill" unicode="&#58930;" d="M641.92 247.04a31.904 31.904 0 0 0-45.248 0L489.376 354.272A31.872 31.872 0 0 0 480 376.896V576a32 32 0 0 0 64 0v-185.856l97.92-97.888a31.968 31.968 0 0 0 0-45.248M512 768c-211.744 0-384-172.256-384-384s172.256-384 384-384 384 172.256 384 384-172.256 384-384 384"  horiz-adv-x="1024" />
      
      <glyph glyph-name="buzan" unicode="&#64120;" d="M950.18 801.18000001l-180.3-1e-8c-5.09999999 0-9.74-1.93-13.28-5.07-1.64999999 0.48-3.01999999 0.8-3.98 1.00999999l-0.39000001 0.11000001c-8.35 2.39-20.97 6-148.76999999 35.44-0.06 0.02-0.16 0.04000001-0.22 0.05l-0.23 0.05c-15.67 3.49000001-98.07 20.92-182.15 20.92l-175.73 0c-37.29 0-61.43-12.17-75.97-38.31-0.24-0.43-0.46-0.87-0.67-1.31l-0.04-0.07c-2.15-4.53-6.29-13.88-9.9-25.65-3.19-10.38-4.04-34.50999999 5.02999999-54.94-12.04-4.91-22.19-12.15999999-30.59999999-21.81-14.52-16.65-20.52-37.21-25.35-53.72-0.95-3.26-1.85-6.34-2.78-9.26-7.08-22.45-9.63-56.19 5.27-80.15-11.4-7.39-21.07-18.13-28.71-32.01-12.13-22.05-16.3-47.28-18.09-58.07-2.81-17.11-0.17-50.33 18.19-73.6-8.37-6.1-14.35-13.27000001-18.56-19.9-11.28-17.76-13.61-37.37-13.99-47.5-0.16-3.82-0.3-5.91-0.41999999-7.75-0.25-3.65999999-0.39-6.07999999-0.39000001-13.24 0-25.81 13.82999999-57.36 52.69-68.47l0.43-0.12c1.53-0.4 2.96-0.79 4.36-1.16999999 26.37-7.19 41.24-11.26 320.54-11.50000001-19.35-59.38-22.05-79.29000001-22.05-148.81 0-42 13.45-84.41 37.88-119.42 23.26-33.33 51.73-53.23 76.17-53.23 32.22 0 51.81 26.38 52.14000001 51.9 0.78 63.66 19.92 218.92 180.46999999 285.41 0.47 0.19 1.38 0.51 2.22 0.81 3.55-5.56 9.76-9.26 16.85-9.26L950.18 242.53999999999996c11.05 0 20 8.95 20 20l0 518.64c0 11.05-8.96 19.99999999-20 20.00000001z m-207.76-510.69000001c-0.54-0.21-1.46-0.54-2.35-0.85-1.38-0.48-2.95-1.03-4.51-1.67-71.47-29.6-125.61-77.54-160.92-142.5-35.6-65.49-43.73000001-133.7-44.29-179.39-0.05-4.04000001-3.09-12.4-12.15-12.4-7.54 0-25.98 11.21-43.37 36.12-11.46 16.43-30.69 50.81-30.69000001 96.53 0 74.49 2.84 85.45 28.72000001 162.42a20.007 20.007 0 0 1-18.96 26.38c-300.68 0-315.42 4.02-337.72 10.1-1.46 0.4-2.94 0.8-4.52 1.22000001-19.41 5.63-23.49 19.38-23.49 29.94999999 0 6.17 0.1 7.72 0.3 10.55 0.13 1.99 0.3 4.46 0.48 8.83l0 0.07999999c0.75 20.04 8.9 43.92 43.51 43.92000001l116.3 0c11.05 0 20 8.95 20 20s-8.95 20-20 20l-114.27 1e-8c-9.06 0-15.69 2.84-20.86 8.92999999-10.48 12.34-12.24 34.57-10.81999999 43.17 7.85 47.46 23.19 68.63 49.75999999 68.63l96.2 0c11.05 0 20 8.95 20 20s-8.95 20-20 20l-83.11999999 0c-13.4 0-18.26 4.52000001-20.75 7.91-7.75 10.57-6.76 32.71-1.89000001 48.16 1.05 3.31999999 2.05 6.76 3.03 10.08 8.91 30.49 15.95 54.58 62.8 54.58l65.18 0c11.05 0 20 8.95 20 20s-8.95 20-20 20l-63.2 0c-3.67999999 0-5.84 1.02-7.96999999 3.75-6.83 8.79-7.16 27.13-6.02000001 31.71 2.85 9.27 6.15 16.69 7.6 19.79 5 8.79 12.56 17.21 40.71 17.21L420.87 813.7000000099999c81.57 0 164.28-17.91 173.44-19.96000001l0.25-0.05c126.72-29.19 139.21-32.76 146.67-34.9l1.22-0.35c0.83-0.24 1.2-0.34 2.01-0.46 1.47-0.31 3.52-1.01 5.42-1.98L749.87999999 294.03999999999996c-1.63-1.3-3.58-2.3-5.76999999-2.96-0.57-0.17-1.14-0.37-1.69-0.59z m187.76-7.95l-140.29999999 0-1e-8 478.64L930.18 761.1800000000001 930.18 282.53999999999996z"  horiz-adv-x="1024" />
      
      <glyph glyph-name="hot" unicode="&#58904;" d="M737.28 616.96c-12.8 10.24-28.16 15.36-43.52 12.8-15.36-2.56-30.72-12.8-35.84-28.16-12.8-28.16-25.6-48.64-38.4-66.56-12.8 94.72-33.28 192-110.08 289.28-12.8 15.36-30.72 20.48-51.2 17.92-17.92-5.12-33.28-17.92-38.4-35.84C384 693.76 332.8 634.88 281.6 573.44l-7.68-7.68c-56.32-66.56-112.64-135.68-117.76-263.68-5.12-117.76 43.52-209.92 115.2-268.8C343.04-25.6 435.2-51.2 522.24-51.2c87.04 2.56 171.52 28.16 238.08 89.6 66.56 61.44 102.4 153.6 99.84 276.48-2.56 102.4-48.64 227.84-122.88 302.08z m-48.64-504.32c-40.96-40.96-102.4-61.44-168.96-61.44-66.56-2.56-133.12 20.48-184.32 61.44-48.64 40.96-81.92 99.84-79.36 186.88 2.56 89.6 38.4 138.24 92.16 199.68 2.56 2.56 5.12 5.12 7.68 10.24 38.4 43.52 81.92 94.72 117.76 168.96 25.6-61.44 33.28-125.44 43.52-202.24 2.56-15.36 2.56-28.16 5.12-43.52 2.56-17.92 12.8-30.72 28.16-38.4 15.36-7.68 33.28-7.68 48.64 0 43.52 23.04 76.8 53.76 107.52 97.28 30.72-51.2 48.64-117.76 51.2-176.64 2.56-99.84-28.16-161.28-69.12-202.24z"  horiz-adv-x="1024" />
      
      <glyph glyph-name="qq" unicode="&#58998;" d="M904.464 252.784c-3.518 34.565-15.507 74.342-33.763 112.009l-2.187 4.511h-0.479c-2.161 4.615-4.545 9.142-6.701 13.236a458.729 458.729 0 0 0-3.267 6.277l-9.478 15.807c-3.675 103.406-39.045 201.026-99.69 275.051C685.91 757.268 601.164 800 510.272 800c-23.936 0-47.089-2.454-68.804-7.291-39.065-8.64-78.389-28.621-113.716-57.779-19.867-16.384-38.636-35.678-55.783-57.344-3.961-5-7.259-10.174-10.448-15.177-1.832-2.874-3.562-5.589-5.416-8.286-24.079-34.977-43.243-73.942-56.958-115.814-14.021-42.805-21.998-87.662-23.72-133.371-2.628-3.694-5.159-7.871-7.62-11.932l-1.479-2.437c-3.602-5.362-6.441-11.225-9.446-17.428-1.123-2.318-2.283-4.715-3.526-7.175l-0.058-0.118c-18.117-37.379-30.106-77.152-33.762-111.997-4.973-41.571 2.356-73.888 20.642-91.019 1.106-1.079 2.327-1.893 3.408-2.614 0.376-0.25 0.935-0.623 1.156-0.8l0.322-0.322 0.446-0.336c15.506-11.685 33.458-13.586 53.359-5.648l0.644 0.29c7.778 3.931 15.738 9.061 23.406 15.063l2.191-4.383c2.564-5.965 5.048-11.048 7.706-15.726-7.855-5.096-15.214-10.623-22.727-17.051l-0.457-0.423c-17.164-17.166-26.237-36.444-26.237-55.751 0-34.404 23.541-63.724 66.242-82.539C285.063-23.265999999999963 331.141-32 379.382-32c27.61 0 55.822 3.228 81.494 9.312 21.756 4.88 38.396 10.35 51.907 17.087 14.987-7.098 31.508-12.557 51.59-17.066 24.559-6.105 52.371-9.332 80.436-9.332 48.242 0 94.319 8.734 129.744 24.594l0.221 0.103c42.574 20.637 66.021 49.913 66.021 82.437 0 19.307-9.073 38.586-26.237 55.752-7.203 7.202-14.921 13.195-23.432 18.178 0.781 1.469 1.576 2.948 2.36 4.408 1.788 3.328 3.635 6.766 5.261 9.955a65.428 65.428 0 0 1 2.228 3.702c7.381-6.045 15.546-11.131 24.035-14.939l0.595-0.239c20.128-7.153 38.476-5.17 53.055 5.739l0.6 0.449 0.363 0.396c0.229 0.176 0.712 0.503 1.043 0.727 1.034 0.699 2.202 1.488 3.271 2.536 18.196 17.231 25.484 49.535 20.527 90.985z m-138.753-21.105l-0.741-1.905c-5.295-13.608-10.771-27.68-18.069-40.168-2.227-3.835-4.376-7.685-6.454-11.407-5.387-9.647-10.48-18.769-16.653-27.358-1.574-1.711-2.245-3.451-2.708-4.653-0.193-0.502-0.36-0.935-0.618-1.45l-0.356-0.826c-6.109-16.678 1.795-33.839 18.434-39.936 14.04-5.044 27.145-12.327 36.004-20.005 5.202-5.255 6.585-8.888 6.585-10.084 0-10.419-23.526-22.368-30.654-25.744-27.382-12.586-65.617-19.805-104.902-19.805-25.714 0-47.867 2.165-67.717 6.618-18.469 4.162-34.877 10.344-48.771 18.375-9.324 6.159-21.605 6.217-32.129 0.13l-0.3-0.182c-11.746-7.499-29.024-14.003-48.574-18.297-21.4-4.471-43.591-6.645-67.839-6.645-39.863 0-77.118 7.033-104.82 19.767-28.521 13.504-30.737 23.148-30.737 25.782 0 0.974 1.217 4.717 6.773 10.273 7.824 7.824 19.154 14.303 34.639 19.807l0.482 0.172 7.725 3.917 0.422 0.286c13.586 9.229 17.173 28.92 7.833 42.998l-0.189 0.273c-8.151 11.24-15.962 24.296-23.215 38.804-7.922 15.844-14.143 29.723-19.016 42.424-1.784 5.155-5.873 9.245-9.831 13.203l-0.536 0.536-0.626 0.426c-6.834 4.641-15.521 6.363-23.827 4.732-8.04-1.581-14.855-6.052-19.198-12.597-4.078-6.16-9.329-12.648-13.729-16.959-5.323-5.259-10.162-9.025-13.957-11.448-1.489 6.145-2.292 17.041 0.14 33.059l0.032 0.235c3.736 30.718 13.596 63.806 27.764 93.167l0.148 0.325c1.987 4.638 4.44 8.979 6.812 13.177 1.481 2.621 3.012 5.331 4.389 8.045 2.539 5.009 5.798 10.256 8.673 14.886 0.821 1.323 1.616 2.603 2.363 3.825 3.018 4.598 4.685 10.54 4.703 16.766 1.071 47.193 9.336 92.748 24.568 135.408 14.795 41.438 35.412 78.134 61.333 109.138 51.333 62.776 119.132 97.349 190.909 97.349 70.095 0 138.041-34.114 196.511-98.66 53.115-64.769 83.569-151.547 85.769-244.392 0.021-4.845 1.547-10.538 4.299-16.045l0.296-0.538c1.187-1.978 2.392-4.12 3.668-6.388 2.226-3.954 4.74-8.421 7.669-12.886l12.266-24.533h0.49c13.61-29.142 22.637-59.716 26.155-88.657 1.832-18.226 0.989-28.201-0.146-33.497-3.867 2.498-8.184 6.52-13.228 12.294l-0.428 0.452c-3.649 3.574-7.329 8.121-11.226 12.936l-1.412 1.741c-3.601 6.349-9.635 9.366-14.522 11.81l-0.639 0.285c-7.574 2.991-16.23 2.754-23.756-0.652-7.649-3.463-13.444-9.747-16.331-17.704z"  horiz-adv-x="1024" />
      
      <glyph glyph-name="weibo" unicode="&#59056;" d="M720.994 396.584c-11.714 3.529-19.741 5.932-13.609 21.424 13.28 33.618 14.668 62.634 0.246 83.316-27 38.823-100.907 36.722-185.606 1.058 0 0.042-26.595-11.713-19.804 9.517 13.032 42.132 11.067 77.425-9.21 97.804-45.958 46.251-168.168-1.744-272.959-107.143C141.575 423.597 96 339.923 96 267.56500000000005 96 129.15499999999997 272.437 45 445.045 45c226.279 0 376.801 132.246 376.801 237.26 0 63.43-53.12 99.438-100.852 114.324zM445.506 94.61599999999999C307.77 80.93899999999996 188.88 143.57399999999996 179.93 234.539c-8.943 90.952 95.498 175.779 233.214 189.483 137.75 13.692 256.653-48.929 265.576-139.867 8.923-91.006-95.45-175.833-233.214-189.539zM871.255 649.87c-54.647 60.945-135.25 84.182-209.637 68.265h-0.042c-17.212-3.708-28.183-20.736-24.498-38.026 3.67-17.303 20.594-28.358 37.819-24.664 52.915 11.302 110.201-5.232 149.039-48.517 38.823-43.299 49.354-102.35 32.733-154.108l0.015-0.014c-5.417-16.864 3.752-34.895 20.539-40.347 16.703-5.438 34.671 3.763 40.102 20.585l0.015 0.124c23.314 72.825 8.576 155.811-46.085 216.702m-83.915-76.175c-26.587 29.676-65.864 40.951-102.116 33.205-14.82-3.186-24.25-17.853-21.088-32.766 3.176-14.859 17.748-24.403 32.526-21.163v-0.042c17.721 3.776 36.941-1.716 49.932-16.204 13.019-14.516 16.525-34.291 10.943-51.648h0.027c-4.648-14.475 3.229-30.047 17.637-34.743 14.422-4.642 29.874 3.268 34.52 17.783 11.397 35.472 4.277 75.902-22.381 105.578M459.267 354.01300000000003c-65.542 17.153-139.614-15.71-168.086-73.799-28.993-59.256-0.962-125.023 65.26-146.528 68.587-22.246 149.436 11.851 177.558 75.805 27.716 62.511-6.901 126.89-74.732 144.522z m-50.041-151.307c-13.329-21.382-41.861-30.76-63.342-20.886-21.179 9.695-27.427 34.524-14.105 55.384 13.163 20.764 40.735 30.007 62.057 21.012 21.577-9.258 28.471-33.922 15.39-55.51z m43.89 56.661c-4.826-8.281-15.473-12.276-23.817-8.816-8.2 3.392-10.771 12.662-6.111 20.805 4.798 8.101 15.033 12.044 23.213 8.773 8.316-3.047 11.306-12.426 6.715-20.762z"  horiz-adv-x="1024" />
      
      <glyph glyph-name="wechat" unicode="&#59057;" d="M308.788 597.788c-13.238 0-26.634-4.411-36.753-12.101-11.914-9.054-18.475-21.8-18.475-35.89s6.561-26.835 18.475-35.89c10.09-7.668 23.438-12.075 36.639-12.101 0.319-0.005 0.636-0.008 0.953-0.008 13.056 0 24.868 4.553 33.354 12.881 8.875 8.708 13.762 21.18 13.762 35.117 0 13.569-4.78 25.826-13.459 34.513-8.681 8.693-20.932 13.479-34.496 13.479zM549.856 549.394c0 13.569-4.78 25.826-13.46 34.514-8.683 8.69-20.934 13.477-34.497 13.477-13.238 0-26.634-4.411-36.753-12.101-11.914-9.054-18.475-21.8-18.475-35.89 0-29.642 28.667-47.99 55.228-47.99 28.237-0.001 47.957 19.734 47.957 47.99zM928 294.227c0 56.698-25.041 111.096-70.468 153.134-41.971 39.21-97.243 64.224-156.525 71.012-13.899 57.481-51.261 110.031-105.729 148.492C539.443 706.288 469.695 728 398.88 728 231.871 728 96 610.871 96 466.899c0-38.591 9.743-75.517 28.957-109.75 17.878-31.853 43.692-60.866 76.807-86.347l-21.49-64.891c-3.457-9.876-0.506-20.64 7.721-28.127l0.474-0.409c8.092-6.627 19.638-8.019 28.73-3.469l88.298 44.191 8.032-1.787h0.547l3.838-0.76c26.362-5.224 51.261-10.158 80.966-10.158 3.076 0 16.632 0.868 27.902 3.02 39.851-84.708 135.453-140.915 241.566-140.915 27.203 0 54.896 6.078 79.19 12.158l67.198-36.515 0.652-0.261c0.306-0.123 0.622-0.257 0.946-0.394 2.491-1.05 5.902-2.487 9.978-2.487 8.214 0 13.567 3.21 16.745 6.146 7.647 6.154 10.985 16.404 8.725 26.968l-0.108 0.505-15.967 52.21C895.294 175.356 928 234.90300000000002 928 294.227z m-519.331-28.218c-3.708-0.137-7.339-0.221-11.001-0.221-26.133 0-48.938 4.786-73.083 9.854l-15.641 2.888-0.478 0.078c-5.433 0.779-10.55-0.196-13.885-1.149l-1.103-0.315-37.639-19.079 6.911 20.078c3.729 10.559 0.099 22.025-9.261 29.232l-0.456 0.334c-63.076 44.003-95.058 97.291-95.058 158.382 0 53.152 24.747 103.358 69.682 141.371 45.54 38.524 106.061 59.74 170.414 59.74 109.807 0 209.281-63.301 238.381-149.422-59.762-4.473-115.446-27.178-158.184-64.768-46.949-41.294-72.805-95.674-72.805-153.124 0.001-11.109 1.076-22.454 3.206-33.879z m374.329-102.726c-8.748-6.034-12.655-17.691-9.345-27.934l1.616-5.371-17.759 9.727-0.671 0.269c-0.305 0.122-0.621 0.256-0.945 0.393-2.491 1.051-5.903 2.489-9.979 2.489-2.077 0-4.443-0.127-6.813-0.93l-4.553-1.125c-22.42-5.55-45.603-11.29-67.414-11.29-108.999 0-197.676 73.892-197.676 164.716 0 90.602 88.677 164.312 197.676 164.312 106.714 0 196.868-75.431 196.868-164.816 0.377-45.036-28.389-91.353-81.005-130.44zM777.442 385.07c-8.958 8.091-21.158 12.547-34.354 12.547-21.12 0-41.088-20.178-41.088-41.52 0-21.343 19.968-41.521 41.088-41.521 29.621 0 47.956 21.552 47.956 41.521 0 10.605-4.958 21.165-13.602 28.973zM625.942 385.07c-8.958 8.091-21.158 12.547-34.354 12.547-21.328 0-41.492-20.178-41.492-41.52 0-21.343 20.164-41.521 41.492-41.521 29.621 0 47.956 21.552 47.956 41.521 0 10.605-4.958 21.165-13.602 28.973z"  horiz-adv-x="1024" />
      
      <glyph glyph-name="star-full" unicode="&#59809;" d="M784.16441 250.39999999999998c-3.8-3.7-5.5-9-4.6-14.2L835.36441-89c1.8-10.3-6.4-18.7-15.8-18.7-2.5 0-5 0.6-7.5 1.9L520.16441 47.700000000000045c-2.3 1.2-4.9 1.8-7.5 1.8s-5.1-0.6-7.5-1.8l-292.1-153.5c-2.5-1.3-5-1.9-7.5-1.9-9.3 0-17.5 8.4-15.8 18.7L245.66441 236.20000000000005c0.9 5.2-0.8 10.5-4.6 14.2L4.86441 480.7C-4.63559 490 0.56441 506.1 13.66441 508l326.5 47.5c5.2 0.8 9.7 4 12 8.8l146 295.9c2.9 5.9 8.6 8.9 14.3 8.9s11.4-3 14.3-8.9l146-295.9c2.3-4.7 6.8-8 12-8.8L1011.66441 508c13.1-1.9 18.4-18 8.9-27.3L784.16441 250.39999999999998z"  horiz-adv-x="1025" />
      
      <glyph glyph-name="star" unicode="&#59810;" d="M512.73613 744.6l103-208.7c11.7-23.6 34.2-40 60.2-43.8l230.3-33.5-166.6-162.4c-18.9-18.4-27.5-44.9-23-70.8L755.93613-4l-206 108.3c-11.4 6-24.3 9.2-37.2 9.2-12.9 0-25.8-3.2-37.2-9.2L269.53613-4l39.3 229.4c4.5 26-4.2 52.4-23 70.8L119.23613 458.7l230.3 33.5c26.1 3.8 48.6 20.1 60.2 43.8l103 208.6M512.73613 869c-5.7 0-11.4-3-14.3-8.9l-146-295.9c-2.3-4.7-6.8-8-12-8.8L13.73613 508c-13.1-1.9-18.4-18-8.9-27.3l236.3-230.3c3.8-3.7 5.5-9 4.6-14.2L190.03613-89c-1.8-10.3 6.4-18.7 15.8-18.7 2.5 0 5 0.6 7.4 1.9l292.1 153.5c2.3 1.2 4.9 1.8 7.4 1.8s5.1-0.6 7.4-1.8l292.1-153.5c2.5-1.3 5-1.9 7.4-1.9 9.3 0 17.5 8.4 15.8 18.7l-55.8 325.2c-0.9 5.2 0.8 10.5 4.6 14.2l236.3 230.3c9.5 9.3 4.3 25.4-8.9 27.3l-326.5 47.4c-5.2 0.8-9.7 4-12 8.8l-146 295.9c-3 6-8.7 8.9-14.4 8.9z"  horiz-adv-x="1025" />
      
      <glyph glyph-name="star-half" unicode="&#59811;" d="M1020.53613 480.7c9.5 9.3 4.3 25.4-8.9 27.3l-326.5 47.5c-5.2 0.8-9.7 4-12 8.8l-146 295.9c-2.9 5.9-8.6 8.9-14.3 8.9s-11.4-3-14.3-8.9l-146-295.9c-2.3-4.7-6.8-8-12-8.8L13.73613 508c-13.1-1.9-18.4-18-8.9-27.3l236.3-230.3c3.8-3.7 5.5-9 4.6-14.2L190.03613-89c-1.8-10.3 6.4-18.7 15.8-18.7 2.5 0 5 0.6 7.5 1.9l292.1 153.5c2.3 1.2 4.9 1.8 7.5 1.8s5.1-0.6 7.5-1.8l292.1-153.5c2.5-1.3 5-1.9 7.5-1.9 9.3 0 17.5 8.4 15.8 18.7L779.73613 236.20000000000005c-0.9 5.2 0.8 10.5 4.6 14.2l236.2 230.3zM716.63613 225.39999999999998L755.93613-4l-206 108.3c-1.7 0.9-3.5 1.7-5.2 2.5V679.7l71-143.8c11.7-23.6 34.2-40 60.2-43.8l230.3-33.5-166.6-162.4c-18.9-18.3-27.5-44.8-23-70.8z"  horiz-adv-x="1025" />
      
      <glyph glyph-name="gmail" unicode="&#58886;" d="M921.6 793.6H102.4C46.08 793.6 0 747.52 0 691.2v-614.4c0-56.32 46.08-102.4 102.4-102.4h819.2c56.32 0 102.4 46.08 102.4 102.4V691.2c0 56.32-46.08 102.4-102.4 102.4z m0-716.8h-102.4V527.36l-307.2-194.56-307.2 194.56V76.79999999999995H102.4V691.2h61.44L512 476.16 860.16 691.2H921.6v-614.4z"  horiz-adv-x="1024" />
      
      <glyph glyph-name="linkedin" unicode="&#58888;" d="M921.6 896H102.4C46.08 896 0 849.92 0 793.6v-819.2c0-56.32 46.08-102.4 102.4-102.4h819.2c56.32 0 102.4 46.08 102.4 102.4V793.6c0 56.32-46.08 102.4-102.4 102.4zM307.2 25.600000000000023H153.6V486.4H307.2v-460.8z m-76.8 547.84c-51.2 0-92.16 40.96-92.16 92.16s40.96 92.16 92.16 92.16 92.16-40.96 92.16-92.16-40.96-92.16-92.16-92.16zM870.4 25.600000000000023H716.8V296.96000000000004c0 40.957992-35.84 76.8-76.8 76.8s-76.8-35.842008-76.8-76.8V25.600000000000023H409.6V486.4h153.6v-61.44c25.6 40.96 81.92 71.68 128 71.68 97.28 0 179.2-81.92 179.2-179.2V25.600000000000023z"  horiz-adv-x="1024" />
      
      <glyph glyph-name="html5" unicode="&#59574;" d="M128 832l69.88-806.42L511.54-64 826 25.700000000000045 896 832z m616-264H376l8-102h352l-27.02-302.78L512 107.03999999999996l-197.36 56-13.56 154.96h96.52l6.84-78.58L512 209.86l106.84 29.84L630 368H296l-25.18 299.18H752.4z"  horiz-adv-x="1024" />
      
      <glyph glyph-name="wechat-fill" unicode="&#59878;" d="M892.8 72.60000000000002c61.2 45 100.4 112.4 100.4 188.8 0 137.2-128.8 249.6-290.4 249.6s-290.4-112.4-290.4-249.6 128.8-249.6 290.4-249.6c32.8 0 65.4 4.4 93.8 13.6 4.6 1.6 6.6 2.2 8.8 2.2 5.4-0.2 10.6-1.6 15.2-4.6l63.4-38.2c2-1.2 4.2-1.8 6.6-2.2 1.2 0 2.2 0.4 3.2 0.8s2 1.2 2.8 2c0.8 0.8 1.4 1.8 2 2.8 0.4 1 0.8 2.2 0.8 3.4-0.2 2.6-0.6 5-1.4 7.4-0.8 2.8-9.4 30.8-13.8 48.8-0.4 2.2-0.6 4.4-0.6 6.6 0 1.8 0.2 3.6 0.6 5.2 0.4 1.8 1 3.4 1.8 5s1.8 3 3 4.4c1.4 1.4 2.6 2.6 3.8 3.6M607 302c-1.2 0-2.6 0-3.8 0.2-1.2 0.2-2.6 0.4-3.8 0.6-1.2 0.2-2.6 0.6-3.8 1-1.2 0.4-2.4 0.8-3.6 1.4-1.2 0.6-2.4 1-3.6 1.6-1.2 0.6-2.2 1.2-3.4 2-1 0.8-2.2 1.6-3.2 2.4-1 0.8-2 1.8-2.8 2.6-1 1-1.8 2-2.6 3s-1.6 2-2.4 3.2c-0.8 1.2-1.4 2.2-2 3.4-0.6 1.2-1.2 2.4-1.6 3.6-0.4 1.2-1 2.4-1.4 3.8-0.4 1.2-0.6 2.6-1 3.8-0.2 1.4-0.4 2.6-0.6 4-0.2 1.4-0.2 2.6-0.2 4s0 2.6 0.2 4 0.4 2.6 0.6 4c0.2 1.4 0.6 2.6 1 3.8 0.4 1.2 0.8 2.6 1.2 3.8 0.4 1.2 1 2.4 1.6 3.6 0.6 1.2 1.2 2.4 2 3.4 0.8 1.2 1.4 2.2 2.4 3.2 0.8 1 1.6 2 2.6 3s1.8 1.8 2.8 2.6c1 0.8 2 1.6 3.2 2.4 1 0.8 2.2 1.4 3.4 2l3.6 1.8c1.2 0.6 2.4 1 3.6 1.4 1.2 0.4 2.4 0.8 3.8 1 1.2 0.2 2.6 0.4 3.8 0.6 1.2 0.2 2.6 0.2 3.8 0.2 1.2 0 2.6 0 3.8-0.2 1.2-0.2 2.6-0.4 3.8-0.6 1.2-0.2 2.6-0.6 3.8-1 1.2-0.4 2.4-0.8 3.6-1.4 1.2-0.6 2.4-1 3.6-1.6 1.2-0.6 2.2-1.4 3.4-2s2.2-1.6 3.2-2.4c1-0.8 2-1.8 2.8-2.6 1-1 1.8-2 2.6-3s1.6-2 2.4-3.2c0.8-1.2 1.4-2.2 2-3.4 0.6-1.2 1.2-2.4 1.6-3.6 0.4-1.2 1-2.4 1.4-3.8 0.4-1.2 0.6-2.6 1-3.8 0.2-1.4 0.4-2.6 0.6-4 0.2-1.4 0.2-2.6 0.2-4s0-2.6-0.2-4-0.2-2.6-0.6-4c-0.2-1.4-0.6-2.6-1-3.8-0.4-1.2-0.8-2.6-1.2-3.8-0.4-1.2-1-2.4-1.6-3.6-0.6-1.2-1.2-2.4-2-3.4-0.8-1.2-1.4-2.2-2.2-3.2-0.8-1-1.6-2-2.6-3s-1.8-1.8-2.8-2.6c-1-0.8-2-1.6-3.2-2.4-1-0.8-2.2-1.4-3.4-2-1.2-0.6-2.4-1.2-3.4-1.6-1.2-0.6-2.4-1-3.6-1.4-1.2-0.4-2.4-0.8-3.8-1-1.2-0.2-2.6-0.4-3.8-0.6-1.6-0.4-3-0.4-4.2-0.4m192 0c-1.2 0-2.6 0-3.8 0.2-1.2 0.2-2.6 0.4-3.8 0.6-1.2 0.2-2.6 0.6-3.8 1-1.2 0.4-2.4 0.8-3.6 1.4-1.2 0.6-2.4 1-3.6 1.6-1.2 0.6-2.2 1.2-3.4 2-1 0.8-2.2 1.6-3.2 2.4-1 0.8-2 1.8-2.8 2.6-1 1-1.8 2-2.6 3s-1.6 2-2.4 3.2c-0.8 1.2-1.4 2.2-2 3.4-0.6 1.2-1.2 2.4-1.6 3.6-0.4 1.2-1 2.4-1.4 3.8-0.4 1.2-0.6 2.6-1 3.8-0.2 1.4-0.4 2.6-0.6 4-0.2 1.4-0.2 2.6-0.2 4s0 2.6 0.2 4 0.4 2.6 0.6 4c0.2 1.4 0.6 2.6 1 3.8 0.4 1.2 0.8 2.6 1.2 3.8 0.4 1.2 1 2.4 1.6 3.6 0.6 1.2 1.2 2.4 2 3.4 0.8 1.2 1.4 2.2 2.4 3.2 0.8 1 1.6 2 2.6 3s1.8 1.8 2.8 2.6 2 1.6 3.2 2.4c1 0.8 2.2 1.4 3.4 2l3.6 1.8c1.2 0.6 2.4 1 3.6 1.4 1.2 0.4 2.4 0.8 3.8 1 1.2 0.2 2.6 0.4 3.8 0.6 1.2 0.2 2.6 0.2 3.8 0.2 1.2 0 2.6 0 3.8-0.2 1.2-0.2 2.6-0.4 3.8-0.6 1.2-0.2 2.6-0.6 3.8-1 1.2-0.4 2.4-0.8 3.6-1.4 1.2-0.6 2.4-1 3.6-1.6 1.2-0.6 2.2-1.4 3.4-2s2.2-1.6 3.2-2.4c1-0.8 2-1.8 2.8-2.6 1-1 1.8-2 2.6-3s1.6-2 2.4-3.2c0.8-1.2 1.4-2.2 2-3.4 0.6-1.2 1.2-2.4 1.6-3.6 0.4-1.2 1-2.4 1.4-3.8 0.4-1.2 0.6-2.6 1-3.8 0.2-1.4 0.4-2.6 0.6-4 0.2-1.4 0.2-2.6 0.2-4s0-2.6-0.2-4-0.2-2.6-0.6-4c-0.2-1.4-0.6-2.6-1-3.8-0.4-1.2-0.8-2.6-1.2-3.8-0.4-1.2-1-2.4-1.6-3.6s-1.2-2.4-2-3.4c-0.8-1.2-1.4-2.2-2.2-3.2-0.8-1-1.6-2-2.6-3s-1.8-1.8-2.8-2.6c-1-0.8-2-1.6-3.2-2.4-1-0.8-2.2-1.4-3.4-2-1.2-0.6-2.4-1.2-3.4-1.6-1.2-0.6-2.4-1-3.6-1.4-1.2-0.4-2.4-0.8-3.8-1-1.2-0.2-2.6-0.4-3.8-0.6-1.6-0.4-2.8-0.4-4.2-0.4M377.8 785.4c-192 0-347-132.6-347-299.2 0-90 45.8-170.8 120-224.8 6.6-4.4 7.8-14.4 7.8-18.2 0.2-3-0.2-5.8-1.2-8.6-6.6-22.4-15-58.8-15.2-60.8-0.4-2-2.2-6.8-2.2-9v-2.2c0.2-0.8 0.2-1.4 0.6-2.2 0.2-0.8 0.6-1.4 1-2 0.4-0.6 0.8-1.2 1.4-1.8 0.6-0.6 1-1 1.6-1.4 0.6-0.4 1.2-0.8 2-1 0.6-0.2 1.4-0.4 2.2-0.6 0.8-0.2 1.4-0.2 2.2-0.2 2.4 0.2 4.6 1 6.6 2.2l76.4 45c6.6 4.4 11 4.4 17.4 4.4 3.8 0 7.4-0.8 11-2.2 35-11.2 74.2-15.8 113.6-15.8h19.6c-7.2 24.2-10.8 49-11 74.2 0 150.6 141.8 272 316.6 272h19.6c-24.4 142-168.4 252.2-343 252.2M262 533.6c-1.6 0-3 0-4.6 0.2-1.6 0.2-3 0.4-4.4 0.6-1.4 0.2-3 0.6-4.4 1.2-1.4 0.4-2.8 1-4.2 1.6-1.4 0.6-2.8 1.2-4 2-1.4 0.8-2.6 1.6-3.8 2.4-1.2 0.8-2.4 1.8-3.6 2.8-1.2 1-2.2 2-3.4 3.2-1 1-2 2.2-3 3.4-1 1.2-1.8 2.4-2.8 3.8-0.8 1.2-1.6 2.6-2.4 4-0.8 1.4-1.4 2.8-2 4.2-0.6 1.4-1 2.8-1.6 4.4-0.4 1.4-0.8 3-1.2 4.4-0.2 1.6-0.6 3-0.6 4.6-0.2 1.6-0.2 3-0.2 4.6 0 1.6 0 3 0.2 4.6 0.2 1.6 0.4 3 0.6 4.6 0.2 1.6 0.6 3 1 4.6 0.4 1.4 1 3 1.6 4.4 0.6 1.4 1.2 2.8 2 4.2s1.4 2.6 2.4 4c0.8 1.2 1.8 2.6 2.6 3.8 1 1.2 2 2.4 3 3.4s2.2 2.2 3.4 3.2c1.2 1 2.4 2 3.6 2.8 1.2 0.8 2.6 1.6 3.8 2.4 1.4 0.8 2.6 1.4 4 2 1.4 0.6 2.8 1.2 4.2 1.6 1.4 0.4 3 0.8 4.4 1.2 1.4 0.4 3 0.6 4.4 0.6 1.4 0.2 3 0.2 4.6 0.2 1.6 0 3 0 4.6-0.2 1.6-0.2 3-0.4 4.4-0.6 1.4-0.2 3-0.6 4.4-1.2 1.4-0.4 2.8-1 4.2-1.6 1.4-0.6 2.8-1.2 4-2 1.4-0.8 2.6-1.6 3.8-2.4 1.2-0.8 2.4-1.8 3.6-2.8 1.2-1 2.2-2 3.4-3.2 1-1 2-2.2 3-3.4 1-1.2 1.8-2.4 2.6-3.8 0.8-1.2 1.6-2.6 2.4-4 0.8-1.4 1.4-2.8 2-4.2 0.6-1.4 1-2.8 1.6-4.4 0.4-1.4 0.8-3 1.2-4.4 0.2-1.6 0.6-3 0.6-4.6 0.2-1.6 0.2-3 0.2-4.6 0-1.6 0-3-0.2-4.6-0.2-1.6-0.4-3-0.6-4.6-0.2-1.6-0.6-3-1.2-4.4-0.4-1.4-1-3-1.6-4.4-0.6-1.4-1.2-2.8-2-4.2-0.8-1.4-1.4-2.6-2.4-4-0.8-1.2-1.8-2.6-2.6-3.8-1-1.2-2-2.4-3-3.4s-2.2-2.2-3.4-3.2c-1.2-1-2.4-2-3.6-2.8-1.2-0.8-2.6-1.6-3.8-2.4-1.4-0.8-2.6-1.4-4-2-1.4-0.6-2.8-1.2-4.2-1.6-1.4-0.4-2.8-0.8-4.4-1.2-1.4-0.4-3-0.6-4.4-0.8-1.2 0-2.6-0.2-4.2-0.2m231.4 0c-1.6 0-3 0-4.6 0.2-1.4 0.2-3 0.4-4.4 0.6-1.4 0.4-3 0.6-4.4 1.2s-2.8 1-4.2 1.6c-1.4 0.6-2.8 1.2-4 2-1.4 0.8-2.6 1.6-3.8 2.4-1.2 0.8-2.4 1.8-3.6 2.8-1.2 1-2.2 2-3.4 3.2-1 1-2 2.2-3 3.4-1 1.2-1.8 2.4-2.6 3.8-0.8 1.2-1.6 2.6-2.4 4-0.8 1.4-1.4 2.8-2 4.2-0.6 1.4-1 2.8-1.6 4.4-0.4 1.4-0.8 3-1 4.4-0.2 1.6-0.6 3-0.6 4.6-0.2 1.6-0.2 3-0.2 4.6 0 1.6 0 3 0.2 4.6 0.2 1.6 0.4 3 0.6 4.6 0.2 1.6 0.6 3 1 4.4 0.4 1.4 1 3 1.6 4.4 0.6 1.4 1.2 2.8 2 4.2 0.8 1.4 1.4 2.6 2.4 4 0.8 1.2 1.8 2.6 2.6 3.8 1 1.2 2 2.4 3 3.4s2.2 2.2 3.4 3.2 2.4 2 3.6 2.8c1.2 0.8 2.6 1.6 3.8 2.4 1.4 0.8 2.6 1.4 4 2 1.4 0.6 2.8 1.2 4.2 1.6 1.4 0.4 3 0.8 4.4 1.2 1.4 0.4 3 0.6 4.4 0.6 1.4 0.2 3 0.2 4.6 0.2 24 0 45.8-22.4 45.8-47.2 2.2-25.2-19.6-47.6-45.8-47.6"  horiz-adv-x="1024" />
      
      <glyph glyph-name="tengxunyun" unicode="&#61001;" d="M465.46176 730.112a349.184 349.184 0 0 1-126.976-46.592l-9.728-5.632a235.52 235.52 0 0 1-20.992-15.36 303.104 303.104 0 0 1-86.528-108.032 344.064 344.064 0 0 1-21.504-60.928c-3.072-10.752-7.168-15.36-13.312-15.36A334.336 334.336 0 0 1 102.45376 444.416a388.096 388.096 0 0 1-51.2-41.984 212.992 212.992 0 0 1-51.2-143.36 208.384 208.384 0 0 1 68.608-157.696 227.84 227.84 0 0 1 96.256-55.808c40.448-10.752 28.672-10.24 345.6-10.24 266.752 0 293.888 0 311.808 3.072a334.848 334.848 0 0 1 57.856 14.848l9.728 4.608a264.704 264.704 0 0 1 47.616 29.184A222.208 222.208 0 0 1 1024.05376 259.584a261.632 261.632 0 0 1-13.312 73.216 27.136 27.136 0 0 0-3.072 8.192 198.656 198.656 0 0 1-19.968 37.376l-9.728 12.288a167.424 167.424 0 0 1-38.4 38.4 173.568 173.568 0 0 1-43.008 28.16l-9.216 4.096a494.08 494.08 0 0 1-51.2 17.408 358.4 358.4 0 0 1-37.888 3.072 216.576 216.576 0 0 1-76.8-7.68l-20.992-7.168a239.104 239.104 0 0 1-51.2-26.112 1382.4 1382.4 0 0 1-108.544-92.672q-95.744-88.576-192.512-176.128l-37.376-34.816-16.896-16.384h-34.304c-18.944 0-42.496 0-51.2 4.096a138.24 138.24 0 0 0-112.128 97.28 185.344 185.344 0 0 0 0 67.072 150.528 150.528 0 0 0 47.616 71.68 168.448 168.448 0 0 0 93.696 33.28 179.712 179.712 0 0 0 114.176-51.2l22.528-18.944 22.528-18.944a59.904 59.904 0 0 1 15.36-11.264c3.584 0 11.776 6.656 40.96 33.28a197.12 197.12 0 0 1 25.088 26.112 109.056 109.056 0 0 1-17.408 19.456l-23.552 19.456c-3.584 4.096-40.448 32.256-59.392 46.08a256 256 0 0 1-64 31.744 70.656 70.656 0 0 0-18.944 8.704 228.864 228.864 0 0 0 17.92 51.2 239.104 239.104 0 0 0 51.2 64 216.064 216.064 0 0 0 83.968 44.032L468.02176 640a173.056 173.056 0 0 0 44.032 4.096A171.52 171.52 0 0 0 563.25376 640a224.256 224.256 0 0 0 96.256-46.08A240.128 240.128 0 0 0 706.61376 537.6a150.016 150.016 0 0 1 10.24-15.36 64.512 64.512 0 0 1 14.848 0 370.688 370.688 0 0 0 45.056 4.096c35.84 0 36.864 0 29.184 15.36a123.904 123.904 0 0 0-6.656 14.848 75.264 75.264 0 0 1-7.168 14.848 81.92 81.92 0 0 0-5.632 9.728 364.544 364.544 0 0 1-40.448 51.2 320 320 0 0 1-90.112 64l-23.04 10.752a310.272 310.272 0 0 1-37.376 11.776 354.816 354.816 0 0 1-130.56 8.192z m350.208-338.944a139.776 139.776 0 0 0 80.896-45.568 115.2 115.2 0 0 0 32.768-84.48 82.944 82.944 0 0 0-4.608-40.448 124.928 124.928 0 0 0-24.064-45.568 147.456 147.456 0 0 0-76.288-47.104 406.528 406.528 0 0 0-41.984-4.608H434.74176a563.2 563.2 0 0 0 48.64 47.104L545.84576 230.4c22.016 20.48 107.008 97.792 119.296 108.032l12.8 11.776a245.76 245.76 0 0 0 43.008 29.184 177.152 177.152 0 0 0 26.112 10.24l17.408 5.12a199.68 199.68 0 0 0 51.2 0z m0 0"  horiz-adv-x="1024" />
      
      <glyph glyph-name="bilibili" unicode="&#59350;" d="M306.005333 778.3679999999999L444.330667 640h135.296l138.368 138.325333a42.666667 42.666667 0 0 0 60.373333-60.373333L700.330667 640H789.333333A149.333333 149.333333 0 0 0 938.666667 490.666667v-341.333334a149.333333 149.333333 0 0 0-149.333334-149.333333h-554.666666A149.333333 149.333333 0 0 0 85.333333 149.33333300000004v341.333334A149.333333 149.333333 0 0 0 234.666667 640h88.96L245.632 718.037333a42.666667 42.666667 0 0 0 60.373333 60.373334zM789.333333 554.666667h-554.666666a64 64 0 0 1-63.701334-57.856L170.666667 490.666667v-341.333334a64 64 0 0 1 57.856-63.701333L234.666667 85.33333300000004h554.666666a64 64 0 0 1 63.701334 57.856L853.333333 149.33333300000004v341.333334A64 64 0 0 1 789.333333 554.666667zM341.333333 426.666667a42.666667 42.666667 0 0 0 42.666667-42.666667v-85.333333a42.666667 42.666667 0 0 0-85.333333 0v85.333333a42.666667 42.666667 0 0 0 42.666666 42.666667z m341.333334 0a42.666667 42.666667 0 0 0 42.666666-42.666667v-85.333333a42.666667 42.666667 0 0 0-85.333333 0v85.333333a42.666667 42.666667 0 0 0 42.666667 42.666667z"  horiz-adv-x="1024" />
      
      <glyph glyph-name="yongyan" unicode="&#58880;" d="M659.655431 374.411985q23.970037 6.71161 46.022472 13.423221 19.17603 5.752809 39.310861 11.505618t33.558052 10.546816l-13.423221-50.816479q-5.752809-21.093633-10.546816-31.640449-9.588015-25.88764-22.531835-47.940075t-24.449438-38.35206q-13.423221-19.17603-27.805243-35.475655l-117.932584-35.475655 96.838951-17.258427q-19.17603-16.299625-41.228464-33.558052-19.17603-14.382022-43.625468-30.202247t-51.29588-29.243446-59.925094-13.902622-62.801498 4.314607q-34.516854 4.794007-69.033708 16.299625 10.546816 16.299625 23.011236 36.434457 10.546816 17.258427 25.40824 40.749064t31.161049 52.254682q46.022472 77.662921 89.168539 152.449438t77.662921 135.191011q39.310861 69.992509 75.745318 132.314607-45.06367-51.775281-94.921348-116.014981-43.146067-54.651685-95.88015-129.917603t-107.385768-164.434457q-11.505618-18.217228-25.88764-42.187266t-30.202247-50.816479-32.599251-55.131086-33.078652-55.131086q-38.35206-62.322097-78.621723-130.397004 0.958801 20.134831 7.670412 51.775281 5.752809 26.846442 19.17603 67.116105t38.35206 94.921348q16.299625 34.516854 24.928839 53.692884t13.423221 29.722846q4.794007 11.505618 7.670412 15.340824-4.794007 5.752809-1.917603 23.011236 1.917603 15.340824 11.026217 44.58427t31.161049 81.977528q22.052434 53.692884 58.007491 115.535581t81.018727 122.726592 97.797753 117.932584 107.865169 101.153558 110.262172 72.389513 106.906367 32.11985q0.958801-33.558052-6.71161-88.689139t-19.17603-117.932584-25.88764-127.520599-27.805243-117.453184z"  horiz-adv-x="1024" />
      
      <glyph glyph-name="facebook" unicode="&#58881;" d="M832.512 832.512q26.624 0 50.176-10.24t40.96-27.648 27.648-40.448 10.24-49.664l0-641.024q0-26.624-10.24-49.664t-27.648-40.448-40.96-27.648-50.176-10.24l-191.488 0 0 384 63.488 0q26.624 0 45.568 18.944t18.944 45.568-18.944 45.568-45.568 18.944l-63.488 0q2.048 38.912 16.384 52.224t38.912 13.312l66.56 0q27.648 0 41.984 19.968t14.336 44.032-13.824 44.032-42.496 19.968l-110.592 0q-34.816 0-60.928-11.776t-44.032-32.256-26.624-47.104-8.704-57.344l0-45.056-63.488 0q-26.624 0-45.568-18.944t-18.944-45.568 18.944-45.568 45.568-18.944l63.488 0 0-384-320.512 0q-26.624 0-49.664 10.24t-40.448 27.648-27.648 40.448-10.24 49.664l0 641.024q0 26.624 10.24 49.664t27.648 40.448 40.448 27.648 49.664 10.24l641.024 0z"  horiz-adv-x="1024" />
      
      <glyph glyph-name="dingyue" unicode="&#58882;" d="M832.512 832.512q26.624 0 49.664-10.24t40.448-27.648 27.648-40.448 10.24-49.664l0-704.512q0-26.624-10.24-49.664t-27.648-40.448-40.448-27.648-49.664-10.24l-704.512 0q-26.624 0-49.664 10.24t-40.448 27.648-27.648 40.448-10.24 49.664l0 704.512q0 26.624 10.24 49.664t27.648 40.448 40.448 27.648 49.664 10.24l704.512 0zM188.416-27.648q19.456 0 36.864 7.168t30.208 19.968 19.968 30.208 7.168 36.864-7.168 36.864-19.968 30.208-30.208 19.968-36.864 7.168q-20.48 0-37.376-7.168t-30.208-19.968-20.48-30.208-7.168-36.864 7.168-36.864 20.48-30.208 30.208-19.968 37.376-7.168zM446.464-1.024l36.864 0q15.36 0 30.208-0.512t31.232-0.512 36.864 1.024q0 93.184-35.84 175.616t-97.28 143.872-143.872 96.768-175.616 35.328q-1.024-24.576-1.024-39.936l0-28.672q0-14.336 0.512-29.184t0.512-37.376q65.536 0 123.392-24.576t100.864-67.584 68.096-100.864 25.088-123.392zM707.584 1.024q36.864 0 49.152-0.512t18.432-1.536 15.872-1.024 41.472 2.048q0 145.408-55.296 272.896t-150.528 222.72-223.232 150.528-273.408 55.296q-1.024-25.6-1.024-36.864l0-16.384q0-4.096 0.512-5.632t0.512-7.168 0.512-18.432 0.512-40.448q119.808 0 224.768-45.056t183.296-123.392 123.392-183.296 45.056-223.744z"  horiz-adv-x="1024" />
      
      <glyph glyph-name="qq-fill" unicode="&#58883;" d="M953.344 229.37599999999998l2.048-14.336 0-8.192 0-6.144 0-6.144-1.024-7.168-1.024-12.288-3.072-11.264-3.072-10.24-1.024-5.12-2.048-4.096-3.072-4.096-2.048-4.096-2.048-3.072-3.072-3.072-2.048-3.072-3.072-2.048-3.072-1.024-3.072-2.048-3.072-1.024-2.048 0-1.024 0-3.072 1.024-4.096 2.048-2.048 2.048-3.072 1.024-2.048 3.072-2.048 2.048-4.096 4.096-4.096 6.144-4.096 6.144-4.096 6.144-4.096 6.144-5.12 10.24-5.12 11.264-1.024 0-1.024 0-2.048-1.024-1.024-3.072-3.072-4.096-3.072-10.24-6.144-15.36-8.192-18.432-5.12-9.216-6.144-10.24-7.168-11.264-7.168-10.24-4.096-5.12-5.12-5.12-10.24-10.24 1.024-1.024 1.024 4.096 5.12-3.072 22.528-11.264 10.24-5.12 9.216-5.12 9.216-7.168 8.192-7.168 4.096-3.072 3.072-4.096 3.072-3.072 2.048-5.12 2.048-4.096 1.024-4.096 1.024-4.096 1.024-4.096-1.024-3.072 0-3.072-1.024-3.072-1.024-3.072-1.024-2.048-2.048-4.096-3.072-5.12-4.096-4.096-3.072-3.072-2.048-3.072-6.144-4.096-7.168-4.096-8.192-3.072-7.168-4.096-9.216-3.072-5.12-2.048-4.096-1.024-10.24-2.048-10.24-3.072-11.264-2.048-11.264-1.024-12.288-1.024-12.288-2.048-12.288 0-13.312 0-13.312 0-13.312 1.024-13.312 2.048-13.312 1.024-14.336 1.024-14.336 3.072-14.336 3.072-13.312 3.072-14.336 3.072-13.312 5.12-14.336 4.096-6.144 3.072-7.168 2.048-4.096 1.024-4.096 1.024-5.12 0-6.144 0-13.312 1.024-6.144 1.024-8.192 0-6.144-4.096-7.168-5.12-10.24-5.12-11.264-6.144-7.168-3.072-7.168-3.072-15.36-6.144-9.216-2.048-9.216-2.048-12.288-3.072-7.168 0-9.216-1.024-8.192-1.024-9.216-1.024-10.24 0-10.24 0-21.504 0-22.528 1.024-22.528 2.048-12.288 2.048-10.24 2.048-11.264 1.024-10.24 2.048-10.24 3.072-9.216 3.072-9.216 3.072-9.216 3.072-7.168 4.096-7.168 5.12-7.168 4.096-2.048 2.048-3.072 3.072-2.048 2.048-3.072 3.072-1.024 4.096-1.024 3.072-3.072 6.144-1.024 2.048 0 4.096 0 3.072 0 4.096 0 4.096 1.024 4.096 0 2.048 0 5.12 1.024 4.096 2.048 4.096 1.024 5.12 2.048 5.12 2.048 2.048 2.048 3.072 4.096 5.12 4.096 2.048 2.048 2.048 4.096 3.072 4.096 1.024 4.096 2.048 4.096 2.048 5.12 2.048 6.144 2.048 6.144 1.024 6.144 1.024 7.168 0 7.168 1.024 2.048 1.024 1.024 1.024 0 1.024-1.024 1.024-4.096 2.048-10.24 3.072-7.168 5.12-7.168 7.168-8.192 8.192-8.192 9.216-9.216 11.264-4.096 6.144-4.096 6.144-4.096 7.168-4.096 7.168-4.096 8.192-3.072 8.192-4.096 8.192-4.096 9.216-3.072 9.216-2.048 11.264-1.024 0-1.024 0 0 1.024-1.024 0-1.024-1.024-1.024 0-1.024-2.048-1.024-2.048-1.024-2.048-1.024-3.072-5.12-9.216-2.048-4.096-3.072-5.12-4.096-5.12-5.12-5.12-4.096-5.12-5.12-5.12-6.144-4.096-5.12-4.096-6.144-4.096-6.144-2.048-8.192-2.048-3.072-1.024-2.048 0-2.048 1.024-2.048 0-2.048 2.048-1.024 2.048-4.096 6.144-1.024 3.072-1.024 5.12-2.048 5.12-1.024 6.144-1.024 11.264-1.024 7.168 0 7.168 0 15.36 1.024 16.384 2.048 8.192 1.024 9.216 1.024 9.216 3.072 9.216 3.072 10.24 3.072 10.24 4.096 10.24 3.072 9.216 5.12 10.24 5.12 11.264 6.144 9.216 7.168 11.264 7.168 10.24 7.168 10.24 6.144 8.192 8.192 8.192 8.192 9.216 3.072 4.096 5.12 4.096 7.168 6.144 7.168 6.144 11.264 10.24 8.192 6.144 3.072 2.048-1.024 5.12-2.048 7.168-1.024 4.096 0 4.096 0 6.144 0 5.12 2.048 6.144 1.024 6.144 2.048 7.168 4.096 7.168 3.072 8.192 6.144 7.168 0 5.12 0 6.144 1.024 6.144 2.048 8.192 3.072 8.192 1.024 4.096 2.048 4.096 3.072 3.072 2.048 3.072 0 6.144 0 6.144 0 7.168 2.048 10.24 1.024 11.264 4.096 14.336 3.072 14.336 3.072 7.168 3.072 9.216 3.072 8.192 4.096 8.192 4.096 9.216 4.096 9.216 5.12 9.216 6.144 9.216 3.072 5.12 4.096 5.12 6.144 10.24 7.168 9.216 8.192 10.24 8.192 10.24 9.216 10.24 10.24 9.216 11.264 11.264 8.192 6.144 9.216 7.168 9.216 6.144 10.24 6.144 10.24 6.144 10.24 4.096 11.264 5.12 11.264 4.096 12.288 4.096 12.288 4.096 12.288 3.072 12.288 2.048 13.312 2.048 13.312 1.024 13.312 2.048 13.312 1.024 13.312 0 13.312 0 14.336 0 13.312-2.048 14.336-1.024 13.312-2.048 13.312-3.072 14.336-3.072 13.312-3.072 13.312-3.072 13.312-5.12 12.288-5.12 12.288-5.12 13.312-6.144 11.264-7.168 11.264-7.168 10.24-7.168 4.096-3.072 5.12-4.096 9.216-7.168 7.168-7.168 8.192-8.192 7.168-8.192 6.144-8.192 7.168-9.216 5.12-9.216 5.12-8.192 6.144-9.216 4.096-8.192 8.192-17.408 3.072-9.216 3.072-9.216 3.072-9.216 3.072-8.192 2.048-7.168 2.048-9.216 4.096-15.36 3.072-13.312 1.024-13.312 2.048-10.24 2.048-16.384 1.024-2.048 1.024-3.072 6.144-9.216 3.072-5.12 3.072-6.144 3.072-6.144 3.072-7.168 3.072-8.192 2.048-8.192 1.024-8.192 1.024-5.12 1.024-5.12 0-5.12-1.024-4.096 0-5.12-1.024-6.144-3.072-10.24-2.048-5.12-2.048-6.144 0-2.048 1.024-1.024 3.072-5.12 12.288-17.408 9.216-14.336 4.096-8.192 6.144-10.24 5.12-10.24 6.144-11.264 6.144-13.312 7.168-14.336 4.096-9.216 4.096-9.216 3.072-9.216 3.072-8.192 2.048-8.192 2.048-8.192 3.072-16.384z"  horiz-adv-x="1024" />
      
      <glyph glyph-name="github" unicode="&#58884;" d="M316.806387 54.93014q0 9.197605 9.197605 9.197605t9.197605-9.197605-9.197605-9.197605-9.197605 9.197605zM274.906188 65.149701q0 9.197605 9.197605 9.197605 10.219561 0 10.219561-9.197605 0-10.219561-10.219561-10.219561-9.197605 0-9.197605 10.219561zM509.956088 896q106.283433 0 199.792415-40.367265t163.001996-109.860279 109.860279-163.001996 40.367265-199.792415q0-82.778443-25.037924-158.914172t-69.493014-138.986028-106.794411-110.371257-135.92016-74.091816q-11.241517-2.043912-25.548902-1.021956t-17.373253 18.39521q-2.043912 12.263473-3.576846 32.702595t-2.043912 41.9002-1.021956 40.878244-0.510978 28.61477-3.576846 23.50499-8.175649 27.592814-9.197605 24.015968-6.642715 13.796407q-2.043912 2.043912 14.307385 4.598802t41.389222 9.708583 54.674651 20.439122 55.185629 35.257485 42.411178 54.163673 16.862275 78.179641q0 69.493014-8.175649 108.327345t-17.373253 58.251497q-11.241517 22.483034-25.548902 28.61477 6.131737 33.724551 9.197605 61.317365 2.043912 23.50499 0.510978 44.966068t-12.774451 27.592814q-11.241517 5.10978-33.213573-2.043912t-45.477046-18.39521q-26.570858-13.285429-57.229541-32.702595-15.329341 5.10978-33.724551 9.197605-16.351297 4.087824-38.834331 7.153693t-50.075848 3.065868-52.630739-3.065868-44.45509-6.131737q-22.483034-4.087824-41.9002-9.197605-30.658683 17.373253-57.229541 29.636727-23.50499 11.241517-45.988024 18.39521t-32.702595 3.065868q-11.241517-5.10978-13.796407-26.05988t-1.532934-45.477046q1.021956-28.61477 5.10978-63.361277-14.307385-15.329341-25.548902-36.790419-10.219561-18.39521-17.884232-44.966068t-7.664671-59.273453q0-47.00998 9.708583-82.778443t26.05988-61.828343 37.301397-43.944112 42.411178-29.125749q51.097804-26.570858 116.502994-30.658683-8.175649-9.197605-14.307385-17.373253-5.10978-7.153693-9.197605-13.796407t-4.087824-9.708583-0.510978-7.664671-1.532934-9.708583l-2.043912-10.219561q-10.219561-4.087824-21.461078-7.153693-9.197605-3.065868-20.439122-5.10978t-22.483034-2.043912-27.592814 11.752495-33.213573 27.081836-30.658683 30.147705-19.928144 20.9501q-6.131737 5.10978-16.351297 8.686627t-20.439122 5.620758-18.39521 2.55489-11.241517-0.510978q-6.131737-3.065868-9.197605-8.686627t5.10978-8.686627q4.087824-2.043912 11.752495-7.664671t15.840319-13.285429 15.329341-15.329341 10.219561-12.774451 9.197605-22.483034 19.928144-35.768463 36.790419-32.702595 61.828343-14.307385q26.570858 0 40.367265 0.510978t20.9501 1.532934l0-78.690619q0-6.131737-1.532934-13.796407t-5.620758-13.285429-11.241517-8.175649-18.39521 0.510978q-2.043912 1.021956-6.131737 1.021956-74.602794 26.570858-136.942116 74.091816t-107.816367 110.882236-71.025948 139.497006-25.548902 159.936128q0 106.283433 40.367265 199.792415t109.860279 163.001996 163.512974 109.860279 200.303393 40.367265zM380.167665 17.117764q4.087824-1.021956 6.131737-2.043912 5.10978-3.065868-6.131737-4.087824l0 6.131737zM359.728543 62.083832q0 10.219561 9.197605 10.219561t9.197605-10.219561q0-9.197605-9.197605-9.197605t-9.197605 9.197605zM177.820359 164.279441q0 6.131737 7.153693 6.131737t7.153693-6.131737q0-7.153693-7.153693-7.153693t-7.153693 7.153693zM246.291417 86.610778q0 9.197605 9.197605 9.197605t9.197605-9.197605q0-10.219561-9.197605-10.219561t-9.197605 10.219561zM207.457086 148.9501q7.153693 0 7.153693-7.153693t-7.153693-7.153693-7.153693 7.153693 7.153693 7.153693zM217.676647 115.225549q0 9.197605 9.197605 9.197605t9.197605-9.197605q0-10.219561-9.197605-10.219561t-9.197605 10.219561z"  horiz-adv-x="1028" />
      
      <glyph glyph-name="weiruan" unicode="&#58885;" d="M454.656 32.768l-1.024 343.04 455.68-2.048 0-409.6zM453.632 752.64l455.68 68.608 0-378.88-455.68 0 0 310.272zM65.536 376.832l325.632-1.024 0-336.896-325.632 52.224 0 285.696zM65.536 442.368l0 251.904 325.632 52.224 0-304.128-325.632 0z"  horiz-adv-x="1024" />
      
      <glyph glyph-name="schedule" unicode="&#60652;" d="M534.016 598.016l0-224 192-114.005333-32-54.016-224 136.021333 0 256 64 0zM512 41.984q139.989333 0 240.981333 100.992t100.992 240.981333-100.992 240.981333-240.981333 100.992-240.981333-100.992-100.992-240.981333 100.992-240.981333 240.981333-100.992zM512 809.984q176 0 301.013333-125.013333t125.013333-301.013333-125.013333-301.013333-301.013333-125.013333-301.013333 125.013333-125.013333 301.013333 125.013333 301.013333 301.013333 125.013333z"  horiz-adv-x="1024" />
      
      <glyph glyph-name="home" unicode="&#58972;" d="M959.390493 368.238015c0-23.127743-18.419512-41.87369-41.138956-41.87369-12.335956 0-23.276123 5.640464-30.817889 14.393825L541.089525 693.270762c-16.065907 16.353456-42.113143 16.353456-58.179051 0L237.802034 443.795874c2.877537-5.636371 4.653997-11.926634 4.653997-18.690688l0-165.475775c0-0.328481-0.089028-0.635473-0.097214-0.961908l0.297782 0 0-163.003468c0-23.125697 18.506493-41.871643 41.337477-41.871643l82.568531 0L366.562607 218.261235c0 22.850427 18.520819 41.3692 41.3692 41.3692L614.775758 259.630435c22.848381 0 41.3692-18.518772 41.3692-41.3692 0-22.846334-18.520819-41.3692-41.3692-41.3692L449.299983 176.892035l0-165.473729c0-22.427802-17.875113-40.583301-40.142256-41.246403l0-0.121773L263.148305-29.94987c-57.115835 0-103.418394 46.864354-103.418394 104.678084L159.729911 258.668527l0.084934 0c-0.00614 0.326435-0.097214 0.633427-0.097214 0.961908L159.717631 364.319775l-23.162536-23.575952c-7.541767-8.745175-18.475793-14.379499-30.807656-14.379499-22.719444 0-41.138956 18.745946-41.138956 41.87369 0 11.862165 4.895497 22.520923 12.687974 30.141484l-0.237407 0.2415 362.215602 368.668571c40.164768 40.881083 105.285928 40.881083 145.450696 0l361.569896-368.010585-0.299829-0.305969C954.175725 391.319709 959.390493 380.436848 959.390493 368.238015zM614.733802 53.793416c0.443092 0 0.854461-0.119727 1.294482-0.132006l0 0.132006 122.683157 0c22.828938 0 41.337477 18.745946 41.337477 41.871643L780.048919 258.668527l0.534166 0c-0.016373 0.496304-0.145309 0.961908-0.145309 1.464351 0 23.125697 18.417465 41.87369 41.138956 41.87369 22.719444 0 41.136909-18.747993 41.136909-41.87369 0-0.502443-0.125867-0.968048-0.145309-1.464351l0.405229 0 0-183.940312c0-57.812707-46.299489-104.678084-103.418394-104.678084l-143.528927 0 0 0.132006c-0.441045-0.014326-0.852414-0.132006-1.294482-0.132006-22.719444 0-41.138956 18.7439-41.138956 41.869596C573.594847 35.0444 592.014358 53.793416 614.733802 53.793416z"  horiz-adv-x="1024" />
      
      <glyph glyph-name="csdn" unicode="&#58890;" d="M672.299893 521.753387c-30.004361 6.185886-61.073984 9.064446-91.749634 9.685593-41.186028 0.835018-41.774429-0.635473-46.343491-40.450271-5.634324-49.097208-10.223852-98.314143-15.640212-151.144372 31.054273-0.64673 60.628846-2.199085 90.162486-1.626034 32.461319 0.629333 63.944358 6.411013 90.443895 27.424606 29.843702 23.666002 39.58967 55.474452 34.120099 91.764983C728.039381 492.275006 705.951317 514.815371 672.299893 521.753387zM657.900951 395.090593c-23.899316-18.074657-51.306526-20.665669-82.688257-16.613376 3.77907 38.039361 7.468089 75.166957 11.500938 115.768677 18.166755-1.276063 34.453696-1.294482 50.341548-3.818979 20.170388-3.204995 36.021401-13.485129 40.776705-34.985816C683.099866 431.62467 678.124552 410.384927 657.900951 395.090593zM503.672334 526.219095c-1.798972-13.027711-3.473101-25.15082-5.205559-37.702694-25.127284 2.170432-49.036833 5.149277-73.019037 5.934153-12.665461 0.414439-25.856901-1.651616-38.011732-5.276167-5.569856-1.660826-9.213849-9.779737-13.731746-14.969946 4.811586-4.14132 8.978489-10.243295 14.548344-12.07092 20.290115-6.65763 41.37534-10.943236 61.541635-17.912975 21.155832-7.312546 42.117237-17.118889 43.12417-43.801599 1.025353-27.151383-17.099447-42.173518-39.515992-51.339272-49.971112-20.434401-101.250008-18.301831-152.551418-5.27412-2.898003 0.735757-6.615675 6.172583-6.522554 9.320273 0.313132 10.570753 2.179642 21.095457 3.244904 29.927613 30.601972-2.39556 60.002582-5.354961 89.476871-6.611581 9.122775-0.388856 19.11229 2.468215 27.425629 6.486738 5.1503 2.489704 10.989285 10.093892 10.780531 15.165398-0.184195 4.474918-7.630794 10.624988-13.091156 12.520151-13.767562 4.780887-28.474518 6.819313-42.334177 11.387351-13.833053 4.558829-27.958772 9.378601-40.431851 16.687054-29.591969 17.339924-31.312146 47.346331-4.841262 69.316715 20.354584 16.893762 44.992727 22.240537 70.433142 25.527396C426.702312 537.62896 479.267505 534.567227 503.672334 526.219095zM959.473381 450.917062c-2.599198-35.797297-7.000438-71.464635-10.664897-107.833961-19.322068 0-37.140898 0-57.091276 0 3.668553 34.127262 6.729262 67.476811 10.968819 100.67491 4.237511 33.18275-7.367805 47.762817-40.654932 48.962132-40.755216 1.468444-40.883129 1.482771-45.26595-38.807864-3.950985-36.326347-7.580652-72.687486-11.507078-110.530372-19.435655 0-37.172621 0-55.32812 0 5.699816 58.20361 11.107989 115.27749 17.277502 172.269505 0.410346 3.78828 6.15007 9.250688 10.17985 10.045797 38.780235 7.6574 77.796854 12.57848 117.373221 6.016017C941.27081 524.000568 962.885084 497.915469 959.473381 450.917062zM251.989151 536.959717c11.636015-0.905626 23.165606-3.169179 35.938514-4.976338-1.662873-15.230889-3.163039-28.963659-4.333702-39.687908-30.569226 0-58.112536 1.639337-85.379553-0.411369-34.80469-2.616594-56.879452-20.388353-63.36926-46.690392-8.036024-32.567743 5.16258-57.6807 38.144762-63.129806 25.119097-4.149507 51.359738-1.601474 77.102029-1.802042 4.854565-0.037862 9.718339 1.010003 13.933337 1.483794 1.093914-1.38044 1.75804-1.827625 1.74883-2.260483-0.845251-41.947368-0.855484-43.796482-42.837644-43.626613-31.178093 0.125867-63.113433 2.62171-93.28971 9.93221-33.339316 8.077979-58.892295 29.67588-64.336284 66.284659-5.77554 38.832424 10.547217 69.608358 41.553395 91.998297C150.319587 535.451364 200.264093 540.985404 251.989151 536.959717zM137.883347 300.333462l-1.199315-1.499144c6.715959-8.794293 15.628956-15.409968 26.742061-19.847024-1.239224-1.759063-2.298346-3.357468-3.177366-4.797259-10.553357 5.196349-19.407002 12.172227-26.561959 20.925588-6.116301-7.91425-15.150048-15.150048-27.101241-21.705348-0.799202 1.358951-1.798972 2.858094-2.998287 4.497431 12.351306 6.196119 21.684882 13.670348 28.000728 22.424732L137.883347 300.332439zM106.34505 249.128243l24.762987 0 0 10.432607-19.426445 0 0 4.376681 19.426445 0 0 9.233292-17.207917 0 0 4.376681 39.45357 0 0-4.376681-17.268292 0 0-9.233292 19.48682 0 0-4.376681-19.48682 0 0-10.432607 24.703635 0 0-4.437056-54.44296 0L106.346073 249.128243zM195.804525 253.565299c2.698458 0.279363 5.536087 0.60989 8.513908 0.989537l0 18.138102-7.374968 0 0 4.317329 7.374968 0 0 14.090926-8.154727 0 0 4.317329 20.506033 0 0-4.317329-7.974625 0 0-14.090926 6.955412 0 0-4.317329-6.955412 0 0-17.568121c2.39863 0.339738 4.876054 0.699941 7.435343 1.079588-0.160659-1.599428-0.25992-3.137457-0.299829-4.617158-7.475252-0.959861-13.950733-1.858324-19.426445-2.698458L195.804525 253.565299zM216.430284 257.463072c5.216815 3.177366 10.673084 6.715959 16.368806 10.612709L232.79909 285.523151l-15.349593 0 0 4.317329 15.349593 0 0 10.673084 4.556783 0 0-10.673084 17.028838 0 0-4.317329-17.028838 0 0-5.336542c0.99977-3.27765 2.168386-6.315846 3.507894-9.113565 3.457752 3.357468 6.345522 6.456039 8.664334 9.293667l3.897773-3.298116c-3.298116-3.258207-6.804986-6.5553-10.522658-9.893324 3.477194-6.016017 7.804756-10.673084 12.981662-13.970176-0.239454-0.360204-0.760317-0.979304-1.558495-1.858324-0.880043-0.918929-1.499144-1.639337-1.858324-2.158153-6.5553 4.736884-11.592013 11.552104-15.110139 20.445658l0-19.367093c0-4.756327-2.478448-7.135514-7.435343-7.135514-1.959631 0-4.057409 0.020466-6.29538 0.060375-0.239454 1.518586-0.559748 3.157923-0.959861 4.916986 2.357697-0.279363 4.497431-0.419556 6.41613-0.419556 2.477424 0 3.717671 1.218758 3.717671 3.657296l0 11.422144c-4.137227-2.87856-8.593725-6.085602-13.370519-9.623171L216.430284 257.463072zM217.749326 279.108045l3.657296 2.218528c2.598174-3.397377 5.175883-7.154957 7.735172-11.272741l-3.837398-2.638083C222.545562 272.092257 220.028229 275.990031 217.749326 279.108045zM240.593614 296.975994l2.638083 2.998287c2.837628-1.87879 5.435803-3.816932 7.794523-5.816472l-2.87856-3.298116C245.789962 293.058778 243.271606 295.097204 240.593614 296.975994zM288.621467 249.847627c1.958608 0.199545 3.917216 0.409322 5.875824 0.629333l0 22.814612-6.595208 0 0 3.597945 59.419298 0 0-3.597945-31.298843 0 0-19.996426c1.918699 0.279363 3.837398 0.569982 5.756097 0.86981-0.040932-0.719384-0.020466-1.998517 0.060375-3.837398-1.87879-0.25992-3.817955-0.530073-5.816472-0.809435l0-7.645121-4.076852 0 0 7.045463c-6.875594-0.979304-14.290471-2.088568-22.24463-3.327792L288.621467 249.847627zM296.955272 298.594865l41.491996 0 0-19.247366-4.197602 0 0 1.379417L301.152874 280.726915l0-1.379417-4.197602 0L296.955272 298.594865zM298.574143 268.495336l13.370519 0 0 4.797259L298.574143 273.292596 298.574143 268.495336zM298.574143 260.220882l13.370519 0 0 4.797259L298.574143 265.018142 298.574143 260.220882zM311.945685 252.695488l0 4.047176L298.574143 256.742664l0-5.785773C303.091016 251.497197 307.548538 252.076388 311.945685 252.695488zM334.25069 295.116647 301.152874 295.116647l0-3.837398 33.097816 0L334.25069 295.116647zM301.152874 284.20411l33.097816 0 0 3.837398L301.152874 288.041508 301.152874 284.20411zM319.020824 265.557424l0 3.477194 23.804149 0 0-3.477194c-2.038426-4.89652-4.717442-9.153474-8.035-12.770861 3.417843-2.49789 7.65433-4.397147 12.71151-5.695722-1.039679-1.518586-1.939165-2.918469-2.698458-4.197602-5.15644 1.698688-9.503445 3.997034-13.041014 6.895037-3.437286-3.078105-7.445576-5.596462-12.021801-7.55507-0.679475 1.199315-1.599428 2.457981-2.75781 3.777023 4.53734 1.738597 8.443299 3.957125 11.721973 6.655584-3.338025 3.577478-5.716188 7.874341-7.135514 12.891611L319.020824 265.557424zM338.267167 265.557424l-12.651135 0c1.258667-3.937682 3.28686-7.305383 6.085602-10.103102C334.479911 258.371768 336.667739 261.739469 338.267167 265.557424zM379.939265 246.850363c16.488533 7.335059 25.382087 18.34788 26.681686 33.037441l-25.603121 0 0 4.676509 25.812899 0c0.100284 5.376451 0.149403 10.79281 0.149403 16.249079l5.216815 0c0-5.376451-0.050142-10.79281-0.149403-16.249079l26.591635 0 0-4.676509-26.681686 0c2.837628-15.968693 12.151761-26.501584 27.941376-31.598672-2.038426-1.958608-3.558036-3.577478-4.556783-4.856611-13.011338 5.236258-21.515013 14.560624-25.51307 27.971052-3.118014-12.131295-11.841699-21.85475-26.172079-29.170366C382.857734 243.311771 381.618511 244.850823 379.939265 246.850363zM476.234425 288.22161l23.084765 0 0 13.07069 5.15644 0 0-13.07069 23.324218 0 0-27.341718-4.916986 0 0 3.237741-18.407232 0 0-22.305005-5.15644 0 0 22.305005-18.167778 0 0-3.237741-4.916986 0L476.234425 288.22161zM481.150388 268.554688l18.167778 0 0 15.229866-18.167778 0L481.150388 268.554688zM522.882861 283.784554l-18.407232 0 0-15.229866 18.407232 0L522.882861 283.784554zM565.153594 290.800341l28.780487 0c-2.018983 3.837398-3.597945 6.635117-4.736884 8.394181l4.617158 2.158153c1.119497-1.719154 2.797719-4.516874 5.036713-8.394181l-4.317329-2.158153 28.180829 0 0-4.437056-11.062963 0c-2.13871-11.411911-6.735401-20.585851-13.791098-27.52182 5.316076-3.877307 13.760398-7.355525 25.332968-10.432607-1.838881-2.078335-3.237741-3.816932-4.197602-5.216815-11.272741 3.897773-19.596314 7.974625-24.972764 12.231579-5.395894-4.197602-14.020318-8.43409-25.872251-12.71151-1.039679 1.39886-2.238994 2.958378-3.597945 4.676509 11.432377 3.437286 20.036335 7.265474 25.812899 11.482519-7.29515 7.794523-11.93175 16.95823-13.910824 27.491121l-11.302417 0L565.152571 290.800341zM606.525863 286.363286l-25.272593 0c1.798972-9.832949 6.095835-17.958 12.891611-24.373107C600.639806 268.025639 604.7668 276.149667 606.525863 286.363286zM671.851685 291.49005l-4.466732 0 0-36.305881 4.466732 0 0-5.066389-14.930037 0 0 5.066389 4.466732 0 0 36.305881-4.466732 0 0 5.066389 14.930037 0L671.851685 291.49005zM738.196719 291.219897l-13.401218 0 0-41.102117-6.02625 0 0 41.102117-13.340843 0 0 5.336542 32.767288 0L738.195695 291.219897zM771.71409 284.503938l0 4.317329 19.48682 0 0-4.437056c-1.939165-3.877307-4.237511-7.544837-6.895037-11.002588l0-30.908964-4.676509 0 0 25.482371c-2.198062-2.318812-4.577249-4.516874-7.135514-6.595208-0.360204 1.438769-0.918929 3.097548-1.679245 4.976338 6.15621 4.956895 11.252275 11.012821 15.289218 18.167778L771.71409 284.503938zM777.649266 298.894693l4.197602 2.098801c1.478677-2.358721 3.038196-5.096065 4.676509-8.214079l-4.437056-2.278903C780.527826 293.738253 779.049149 296.535973 777.649266 298.894693zM785.024234 270.053832l3.118014 2.578732c2.438539-2.717901 4.657067-5.296633 6.655584-7.735172l-3.717671-2.937912C789.161461 264.71729 787.143501 267.415748 785.024234 270.053832zM791.20091 249.008516l16.848737 0 0 29.380144-14.270005 0 0 4.676509 14.270005 0 0 17.568121 4.797259 0 0-17.568121 15.229866 0 0-4.676509-15.229866 0 0-29.380144 17.028838 0 0-4.676509-38.673811 0L791.201933 249.008516zM867.8885 296.856267l51.565423 0 0-4.676509-46.468334 0 0-41.851177 47.428196 0 0-4.556783-52.524261 0L867.889523 296.856267zM877.601722 285.583526l3.357468 3.177366c4.996804-4.116761 10.222829-8.634658 15.679098-13.550621 4.177136 4.516874 8.184403 9.43386 12.021801 14.749936l4.376681-2.937912c-4.197602-5.436826-8.454556-10.472516-12.770861-15.110139 4.976338-4.53734 10.132778-9.393951 15.46932-14.569834l-4.137227-4.197602c-4.837168 5.056156-9.813506 10.05296-14.930037 14.989389-5.776563-5.856381-11.652388-11.012821-17.628496-15.46932-0.959861 1.239224-2.238994 2.537799-3.837398 3.897773 6.275937 4.27742 12.241812 9.263991 17.897625 14.959713C888.084471 276.260184 882.918821 280.946926 877.601722 285.583526z"  horiz-adv-x="1024" />
      
      <glyph glyph-name="book" unicode="&#59004;" d="M768 718.336h9.216c11.776-0.512 23.552-1.536 35.328-2.048 43.52-2.56 86.528-8.704 129.536-16.896 15.36-3.072 22.016-11.264 22.016-26.624v-35.84c0-14.336 8.192-23.04 23.04-23.552 4.096 0 8.192 0.512 12.288 0 4.096-0.512 8.192-1.024 11.776-2.56 10.24-5.12 13.312-13.824 13.312-25.088v-481.28c0-11.264-3.584-20.48-14.336-25.088-4.608-2.048-9.728-2.56-14.336-2.56h-405.504c-11.264 0-15.36-3.584-16.896-14.848-1.536-9.728-5.632-13.824-15.872-13.824H468.48c-10.24 0-14.848 4.096-15.872 14.336-0.512 6.144-3.072 11.264-9.216 13.312-3.072 1.024-6.144 1.024-9.216 1.024H24.064c-13.312 1.536-21.504 9.728-22.528 23.04-0.512 3.584-0.512 7.168-0.512 10.24V590.848c0.512 0.512 0.512 1.024 1.024 2.048 3.072 13.312 11.264 19.968 24.576 20.48h10.752c16.384 0 24.576 8.192 24.576 24.576v36.352c0 13.312 7.168 22.016 20.48 24.576C134.656 708.608 187.392 716.288 240.64 716.8c3.072 0 6.144 0.512 8.704 1.024h6.144c3.072-0.512 6.144-0.512 9.216-1.024 25.6 0 50.688-2.048 75.776-6.144 33.28-5.632 66.048-14.336 96.768-28.16 23.04-10.24 43.52-23.552 64.512-37.376 7.168-5.12 14.336-5.12 22.016 0s15.36 10.24 23.04 14.848c31.744 20.48 66.048 34.304 102.4 43.52 35.84 9.216 72.192 13.312 109.056 13.824 3.584 0.512 6.656 1.024 9.728 1.024zM92.672 422.912V194.56c0-17.92 11.264-27.648 29.184-25.088 20.992 3.072 41.472 5.632 62.464 8.192 53.76 5.632 107.008 5.12 160.256-4.096 36.352-6.144 71.168-16.384 104.448-33.28 9.728-5.12 19.456-10.752 29.184-15.872 9.728-5.12 18.432-0.512 19.456 10.752v6.144c0 145.92 0 291.84-0.512 437.76v6.144c-0.512 14.336-6.656 26.112-18.432 35.328-18.432 14.336-38.912 26.112-59.904 35.328-48.64 21.504-99.84 31.232-152.576 33.28-50.176 2.048-99.84-2.048-148.992-10.752-17.408-3.072-24.064-11.264-24.064-28.672-0.512-76.288-0.512-151.552-0.512-226.816z m840.704-0.512V508.416 650.752c0 14.848-8.192 24.576-22.016 26.624-21.504 3.072-43.008 6.144-64.512 8.192-48.64 5.12-97.28 4.608-145.408-3.072-54.784-8.704-104.96-27.136-150.528-59.392-15.36-10.752-22.528-24.576-22.528-43.52v-439.808c0-2.56 0-4.608 0.512-7.168 1.024-7.168 7.68-12.288 14.848-10.24 2.56 0.512 4.608 2.048 6.656 3.072 25.088 14.848 51.2 26.624 79.36 35.328 31.744 9.728 64.512 16.384 97.792 17.92 27.648 1.536 55.808 2.048 83.456 0.512 31.232-2.048 62.464-6.656 93.696-10.24 8.704-1.024 16.896 0 23.04 7.168 4.608 5.12 5.632 11.264 5.632 17.92V422.4z"  horiz-adv-x="1024" />
      
      </font>
</defs>
</svg>
